<?xml version="1.0" standalone="no"?>
<!DOCTYPE svg PUBLIC "-//W3C//DTD SVG 20010904//EN"
 "http://www.w3.org/TR/2001/REC-SVG-20010904/DTD/svg10.dtd">
<svg version="1.0" xmlns="http://www.w3.org/2000/svg"
 width="196.000000pt" height="196.000000pt" viewBox="0 0 196.000000 196.000000"
 preserveAspectRatio="xMidYMid meet">
<metadata>
Created by potrace 1.14, written by Peter Selinger 2001-2017
</metadata>
<g transform="translate(0.000000,196.000000) scale(0.100000,-0.100000)"
fill="#000000" stroke="none">
<path d="M659 1723 c-1 -4 -2 -52 -3 -105 l-1 -98 70 -1 c38 0 228 -1 420 -3
l350 -3 57 -27 c72 -34 140 -108 168 -184 57 -149 -15 -323 -163 -398 -50 -26
-45 -26 -443 -33 l-31 -1 2 -75 c3 -85 20 -120 62 -129 15 -3 84 -8 152 -11
116 -5 129 -7 195 -40 39 -19 88 -51 110 -71 77 -74 136 -196 136 -281 l0 -34
107 3 108 3 -2 30 c-6 155 -76 303 -204 434 l-42 44 29 21 c88 63 172 186 199
293 72 279 -86 560 -363 647 -76 23 -84 24 -494 25 -230 1 -419 -2 -419 -6z"/>
<path d="M0 1193 l0 -108 327 0 327 0 2 -185 c2 -208 5 -235 34 -314 60 -160
194 -284 362 -333 53 -16 96 -19 263 -19 171 1 200 3 199 16 -3 83 -78 172
-158 185 -11 2 -68 6 -126 9 -107 5 -144 13 -192 38 -66 36 -133 116 -156 188
-15 47 -22 399 -8 408 6 4 110 7 231 9 121 1 248 2 282 2 54 1 67 5 95 30 26
23 32 36 32 69 0 47 -25 89 -60 102 -14 6 -323 10 -739 10 l-715 0 0 -107z"/>
</g>
</svg>
