<?xml version="1.0" standalone="no"?>
<!DOCTYPE svg PUBLIC "-//W3C//DTD SVG 20010904//EN"
 "http://www.w3.org/TR/2001/REC-SVG-20010904/DTD/svg10.dtd">
<svg version="1.0" xmlns="http://www.w3.org/2000/svg"
 width="200.000000pt" height="200.000000pt" viewBox="0 0 200.000000 200.000000"
 preserveAspectRatio="xMidYMid meet">
<metadata>
Created by potrace 1.14, written by Peter Selinger 2001-2017
</metadata>
<g transform="translate(0.000000,200.000000) scale(0.100000,-0.100000)"
fill="#000000" stroke="none">
<path d="M21 1985 c-1 -15 -4 -16 -10 -7 -4 8 -8 -21 -9 -67 0 -82 3 -91 28
-68 8 6 6 2 -4 -10 -11 -13 -15 -23 -10 -23 5 0 3 -4 -5 -9 -13 -8 -13 -12 0
-27 9 -11 9 -15 1 -10 -7 4 -12 1 -12 -9 0 -10 5 -14 13 -9 10 6 10 4 0 -7
-17 -17 -17 -43 -1 -33 8 5 8 1 -1 -10 -13 -15 -13 -19 0 -27 8 -5 9 -9 4 -9
-6 0 -12 -25 -13 -55 -1 -51 0 -55 21 -55 17 0 19 -2 7 -9 -8 -6 -17 -8 -21
-6 -11 7 -7 -179 5 -194 7 -10 7 -13 0 -9 -17 11 -14 -62 4 -83 10 -11 17 -23
17 -27 0 -4 4 -14 10 -22 8 -13 7 -13 -8 -1 -9 7 -15 17 -12 21 3 4 -1 12 -8
18 -10 9 -13 0 -15 -39 -2 -38 1 -48 10 -43 10 6 9 3 0 -9 -15 -17 -14 -123 1
-144 4 -6 3 -14 -3 -18 -5 -3 -10 -13 -10 -20 0 -11 6 -12 25 -5 14 5 25 7 25
5 0 -3 -12 -10 -27 -16 -22 -8 -24 -12 -13 -19 10 -7 11 -10 3 -10 -7 0 -13
-7 -13 -15 0 -15 7 -18 45 -17 18 1 18 0 2 -5 -13 -3 -17 -11 -14 -24 3 -10 2
-18 -2 -17 -26 3 -30 -6 -30 -89 0 -56 5 -99 14 -118 13 -26 14 -27 10 -5 -3
14 -2 19 1 13 3 -7 11 -13 17 -13 18 0 46 -31 40 -46 -3 -8 -1 -14 5 -14 6 0
13 6 15 13 4 9 6 9 6 0 1 -6 -4 -15 -9 -18 -8 -5 -7 -12 2 -23 8 -11 4 -10
-11 3 l-24 20 12 -22 c15 -29 14 -37 -3 -21 -8 7 -12 15 -10 17 2 2 -2 11 -9
19 -7 10 -8 13 -1 9 7 -4 14 2 17 13 3 13 0 20 -10 20 -8 0 -11 5 -8 10 3 6 2
10 -4 10 -5 0 -11 -6 -14 -12 -3 -10 -7 -10 -20 1 -15 12 -17 11 -17 -3 0 -9
5 -16 10 -16 6 0 10 -8 10 -17 0 -13 -3 -14 -8 -5 -5 7 -8 -6 -8 -30 1 -24 5
-49 10 -57 6 -10 6 -12 -3 -7 -8 6 -11 -8 -10 -49 1 -34 5 -51 10 -43 7 10 9
9 9 -4 0 -10 5 -18 10 -18 12 0 10 31 -2 40 -4 3 -9 18 -12 33 -3 20 -1 27 11
27 11 0 14 -6 9 -24 -4 -18 -1 -29 12 -38 20 -15 42 -45 24 -34 -12 7 -45 -22
-37 -34 3 -5 1 -11 -4 -15 -6 -3 -8 4 -6 15 3 14 0 20 -8 17 -17 -5 -21 -68
-5 -78 10 -7 10 -9 1 -9 -9 0 -13 -17 -13 -50 0 -30 4 -50 11 -50 7 0 8 -4 2
-12 -5 -7 -10 -44 -12 -81 l-3 -68 34 4 c19 2 40 7 47 12 9 5 12 4 8 -1 -3 -6
19 -11 51 -12 36 -1 59 3 64 11 5 8 8 9 8 0 0 -16 119 -16 139 0 12 10 13 9 7
-1 -6 -11 3 -13 45 -11 30 1 57 6 60 11 3 5 15 10 27 13 12 2 26 6 31 10 5 3
13 0 17 -6 4 -8 3 -9 -4 -5 -7 4 -12 1 -12 -8 0 -19 40 -21 59 -3 11 9 13 9 7
0 -4 -7 -3 -13 1 -13 5 0 15 6 22 13 11 9 13 9 7 -1 -9 -16 16 -16 33 1 11 10
12 9 6 -1 -6 -11 6 -13 56 -11 35 1 67 7 71 13 5 8 8 7 8 -1 0 -7 9 -13 21
-13 11 0 18 4 14 9 -3 5 -1 12 5 16 6 3 13 0 16 -8 6 -17 220 -23 241 -5 9 8
13 7 13 -1 0 -7 10 -11 23 -9 15 2 21 9 20 23 -1 11 0 14 3 8 3 -7 15 -13 27
-14 21 0 21 -1 2 -9 -13 -6 42 -9 146 -8 148 2 168 4 178 20 10 16 8 18 -18
18 -16 0 -32 -6 -34 -12 -4 -9 -6 -9 -6 1 -1 11 -5 10 -15 -5 -12 -16 -17 -17
-28 -6 -11 11 -10 12 3 7 12 -4 16 0 15 17 -1 13 -5 29 -9 36 -5 6 -5 12 -1
12 3 0 1 7 -6 15 -10 12 -10 15 1 15 8 0 4 9 -11 20 -14 11 -18 18 -10 15 12
-4 16 1 16 20 0 19 -4 24 -17 20 -10 -3 -20 -1 -24 4 -4 7 1 8 11 4 11 -4 15
-3 11 4 -5 7 0 9 13 6 11 -3 20 0 20 6 0 6 -6 10 -12 9 -7 -2 -13 5 -13 14 0
10 -9 24 -20 33 -12 9 -14 13 -5 10 12 -4 16 1 16 20 0 19 -4 24 -17 20 -10
-3 -20 -1 -24 4 -4 7 1 8 11 4 11 -4 15 -3 11 4 -5 7 0 9 13 6 11 -3 20 0 20
6 0 6 -6 10 -12 9 -7 -2 -13 5 -13 14 0 10 -9 24 -20 33 -16 12 -17 14 -2 9
18 -6 21 3 11 30 -3 8 -12 12 -19 10 -7 -3 -16 0 -21 7 -4 8 -3 10 4 5 7 -4
12 -2 12 4 0 7 8 9 20 5 12 -4 20 -2 20 5 0 6 -4 9 -9 5 -5 -3 -12 -1 -15 4
-7 10 19 9 30 -1 3 -4 1 -16 -6 -27 -10 -20 -8 -21 34 -21 45 0 66 -12 45 -26
-8 -4 -9 -3 -5 4 5 8 -3 12 -23 12 -18 0 -31 -5 -31 -12 0 -9 -3 -9 -9 1 -6
10 -9 3 -8 -21 1 -30 4 -34 23 -30 13 2 23 -2 27 -12 4 -9 2 -16 -2 -16 -5 0
-11 5 -13 11 -2 6 -9 0 -16 -15 -10 -22 -9 -26 3 -26 8 0 15 -8 14 -17 0 -11
-3 -13 -6 -5 -2 6 -9 12 -14 12 -6 0 -6 -8 1 -19 5 -11 7 -28 3 -38 -6 -16 -5
-16 10 -4 15 12 17 11 17 -3 0 -10 -5 -26 -10 -37 -8 -15 -7 -19 5 -19 8 0 15
-8 14 -17 0 -11 -3 -13 -6 -5 -2 6 -9 12 -15 12 -6 0 -3 -11 6 -25 9 -14 12
-25 7 -25 -5 0 -9 -9 -8 -20 1 -11 4 -20 7 -20 11 0 30 41 24 52 -4 6 -3 8 3
5 13 -8 23 -57 12 -57 -4 0 -9 5 -11 11 -2 6 -9 0 -16 -15 -10 -23 -10 -26 9
-26 11 0 17 5 14 10 -3 6 -1 10 4 10 6 0 11 -4 11 -10 0 -5 8 -10 18 -10 26 0
34 -11 21 -27 -6 -7 -10 -13 -8 -14 41 -9 64 -8 70 3 6 9 9 9 9 1 0 -16 250
-15 250 1 0 7 3 7 8 1 11 -15 122 -17 122 -2 0 7 3 8 8 2 4 -5 13 -11 19 -12
17 -4 16 368 -1 379 -8 6 -7 8 2 8 7 0 12 13 12 31 0 17 -4 28 -10 24 -5 -3
-4 8 2 26 8 24 8 37 -1 52 -7 11 -8 16 -2 12 7 -4 11 4 11 21 0 22 -4 25 -21
21 -15 -4 -18 -2 -10 7 6 7 8 16 4 20 -4 4 0 4 10 1 14 -6 16 1 16 55 -1 42
-5 63 -15 67 -8 3 -11 10 -8 15 4 6 10 5 16 -3 5 -9 8 27 7 93 -2 73 -6 105
-13 101 -6 -4 -5 1 3 10 10 13 11 20 2 31 -8 10 -9 16 -1 21 5 3 10 11 10 16
0 6 -6 7 -12 3 -10 -6 -10 -4 -2 7 13 16 18 613 6 605 -4 -2 -14 0 -22 6 -12
8 -12 9 3 4 9 -3 18 -2 18 2 8 48 7 62 -4 55 -9 -5 -9 -3 -1 8 13 15 16 201 4
194 -4 -2 -7 2 -7 10 0 8 4 15 9 15 5 0 8 17 6 38 -3 37 -3 37 -52 40 -36 2
-47 0 -43 -10 2 -7 12 -12 21 -12 9 1 16 -2 16 -7 0 -16 -39 -9 -49 9 -9 16
-36 17 -320 19 -307 1 -317 0 -312 -29 0 -4 -5 -5 -13 -2 -7 3 -19 -2 -26 -11
-7 -8 -16 -15 -21 -15 -4 0 2 10 14 23 12 13 25 22 30 20 4 -2 7 0 7 6 0 13
-83 8 -87 -6 -2 -6 1 -14 6 -18 6 -3 11 -1 11 6 0 7 3 10 6 6 3 -3 3 -10 0
-16 -9 -14 -46 8 -40 23 3 7 -16 12 -47 14 -37 2 -49 0 -44 -8 6 -9 2 -9 -13
-1 -30 16 -55 14 -49 -4 4 -8 2 -17 -4 -20 -5 -4 -8 -1 -7 6 2 8 -7 13 -22 13
-14 1 -28 6 -32 11 -5 6 -8 5 -8 -2 0 -7 -5 -13 -11 -13 -5 0 -8 3 -6 8 6 9
-60 9 -69 -1 -4 -4 -12 -7 -18 -7 -6 0 -4 5 4 10 12 8 11 10 -7 10 -13 0 -23
-5 -23 -11 0 -6 -5 -7 -12 -2 -14 8 -158 14 -171 6 -4 -2 -2 -13 3 -24 6 -11
15 -17 20 -14 5 3 11 1 15 -4 3 -6 -3 -8 -15 -6 -25 5 -59 24 -43 25 7 0 10 7
7 15 -5 11 -10 12 -26 4 -15 -8 -19 -8 -13 0 5 8 -2 11 -22 8 -15 -3 -27 -10
-25 -16 1 -7 -2 -10 -8 -6 -6 3 -8 11 -5 16 9 14 -69 11 -83 -3 -8 -8 -12 -8
-12 -1 0 14 -53 14 -62 -1 -6 -8 -8 -8 -8 1 0 9 -27 12 -100 11 -77 0 -100 -4
-100 -14 0 -8 -4 -14 -10 -14 -5 0 -7 7 -3 16 4 12 0 15 -18 12 -13 -1 -27
-10 -31 -18 -5 -12 -7 -12 -7 3 -1 9 -5 17 -11 17 -5 0 -10 -8 -11 -17 0 -15
-2 -15 -9 2 l-9 20 0 -20z m144 -5 c-3 -5 -11 -10 -16 -10 -6 0 -7 5 -4 10 3
6 11 10 16 10 6 0 7 -4 4 -10z m307 -2 c-7 -7 -12 -16 -12 -22 0 -6 5 -5 11 1
13 13 42 6 34 -8 -3 -4 -13 -5 -23 -2 -15 6 -15 5 -3 -10 7 -9 23 -18 35 -18
20 -2 20 -2 -2 -6 -14 -3 -20 -9 -16 -16 4 -7 4 -9 -1 -5 -4 4 -15 3 -25 -2
-12 -6 -17 -5 -17 6 0 8 6 13 13 10 22 -9 25 10 4 29 -25 22 -26 55 -3 55 13
0 14 -3 5 -12z m828 3 c0 -5 -8 -17 -17 -28 -10 -10 -15 -14 -10 -9 4 6 7 18
7 28 0 10 5 18 10 18 6 0 10 -4 10 -9z m296 -23 c-14 -8 -15 -13 -5 -24 8 -10
9 -18 2 -25 -6 -6 -10 -5 -11 3 0 7 -3 23 -6 35 -5 24 25 53 33 31 2 -6 -4
-15 -13 -20z m104 20 c0 -7 -12 -18 -26 -25 -22 -10 -25 -9 -22 5 2 10 11 16
21 14 9 -2 17 2 17 8 0 5 2 10 5 10 3 0 5 -6 5 -12z m-1445 -8 c3 -5 -1 -10
-10 -10 -9 0 -13 5 -10 10 3 6 8 10 10 10 2 0 7 -4 10 -10z m456 -3 c-7 -7 -7
-16 0 -28 7 -14 6 -17 -4 -13 -17 6 -17 51 0 51 9 0 10 -4 4 -10z m154 3 c-3
-5 1 -10 10 -10 9 0 14 -4 10 -10 -8 -13 -35 -1 -35 16 0 8 5 14 11 14 5 0 7
-4 4 -10z m465 -10 c6 -11 8 -20 6 -20 -3 0 -10 9 -16 20 -6 11 -8 20 -6 20 3
0 10 -9 16 -20z m77 -2 c-3 -8 -6 -5 -6 6 -1 11 2 17 5 13 3 -3 4 -12 1 -19z
m40 -1 c1 -11 1 -18 0 -16 -2 2 -8 11 -15 20 -9 12 -9 16 1 16 7 0 14 -9 14
-20z m83 16 c0 -15 -15 -29 -35 -36 -17 -6 -16 -4 4 12 18 14 21 20 10 24 -10
4 -9 6 4 6 9 1 17 -2 17 -6z m-1135 -13 c3 -5 1 -10 -4 -10 -6 0 -11 5 -11 10
0 6 2 10 4 10 3 0 8 -4 11 -10z m43 -10 c3 -8 0 -10 -8 -5 -12 7 -11 0 8 -55
3 -11 2 -12 -6 -5 -16 14 -24 87 -9 82 6 -2 13 -9 15 -17z m128 8 c4 -7 4 -10
-1 -6 -4 4 -17 3 -29 -3 -20 -10 -20 -10 -2 5 24 19 23 19 32 4z m388 0 c-3
-4 -11 -5 -19 -1 -21 7 -19 12 4 10 11 0 18 -5 15 -9z m111 -26 c-6 -8 -32 11
-32 23 0 12 4 11 17 -3 10 -9 16 -18 15 -20z m44 -16 c0 -7 -2 -6 -6 2 -2 6
-10 9 -16 5 -7 -3 -9 -3 -5 2 4 4 3 17 -3 29 -9 19 -8 19 10 -3 12 -13 21 -28
20 -35z m705 45 c9 -13 -4 -42 -16 -35 -5 3 -4 11 3 20 21 25 -1 15 -27 -13
-14 -15 -22 -20 -18 -10 4 12 2 16 -7 14 -8 -2 -11 -2 -6 0 4 3 4 10 0 16 -4
7 1 6 10 -2 14 -11 18 -11 23 3 7 17 29 22 38 7z m75 -22 c1 8 4 12 7 8 10
-10 -6 -26 -20 -21 -9 3 -12 14 -8 27 6 21 6 21 13 -3 4 -14 7 -19 8 -11z
m-1741 -2 c2 -9 -1 -17 -7 -17 -6 0 -8 6 -5 14 3 8 -2 16 -13 20 -15 4 -15 5
2 3 11 -1 21 -10 23 -20z m67 4 c5 -13 7 -14 16 -1 9 13 10 13 6 -1 -3 -9 0
-23 6 -30 10 -11 9 -11 -4 -1 -9 6 -19 8 -23 4 -4 -4 -6 -2 -4 5 2 6 -5 18
-16 26 -15 11 -16 14 -3 14 9 0 19 -7 22 -16z m84 1 c7 -13 6 -19 -2 -19 -7 0
-13 9 -13 19 0 10 1 18 3 18 1 0 7 -8 12 -18z m375 3 c3 -8 1 -15 -4 -15 -6 0
-10 7 -10 15 0 8 2 15 4 15 2 0 6 -7 10 -15z m716 11 c0 -2 -7 -9 -15 -16 -13
-11 -14 -10 -9 4 5 14 24 23 24 12z m323 -17 c-8 -8 -13 -7 -18 2 -5 8 -4 10
3 5 7 -4 12 -2 12 5 0 7 3 9 7 6 4 -4 2 -12 -4 -18z m-1119 -4 c3 -8 1 -15 -4
-15 -6 0 -10 7 -10 15 0 8 2 15 4 15 2 0 6 -7 10 -15z m-534 1 c0 -2 -7 -9
-15 -16 -13 -11 -14 -10 -9 4 5 14 24 23 24 12z m60 -2 c0 -8 -19 -13 -24 -6
-3 5 1 9 9 9 8 0 15 -2 15 -3z m790 -4 c0 -5 -2 -10 -4 -10 -3 0 -8 5 -11 10
-3 6 -1 10 4 10 6 0 11 -4 11 -10z m551 -22 c5 1 9 0 9 -1 0 -8 -38 -47 -45
-47 -5 0 0 9 10 20 10 11 15 21 12 21 -4 1 -11 2 -16 3 -16 2 -23 14 -15 27 5
9 11 7 21 -7 8 -10 19 -18 24 -16z m386 10 c-3 -8 -6 -5 -6 6 -1 11 2 17 5 13
3 -3 4 -12 1 -19z m-1507 8 c0 -3 -4 -8 -10 -11 -5 -3 -10 -1 -10 4 0 6 5 11
10 11 6 0 10 -2 10 -4z m50 -2 c0 -8 -19 -13 -24 -6 -3 5 1 9 9 9 8 0 15 -2
15 -3z m660 -49 c-5 -6 -5 -17 0 -25 7 -10 10 -11 10 -2 0 6 4 12 10 12 5 0 7
-6 4 -14 -8 -21 -41 -16 -39 6 1 10 4 20 8 24 3 3 -1 18 -10 33 l-15 26 20
-25 c13 -15 17 -29 12 -35z m124 39 c3 -8 2 -12 -4 -9 -6 3 -10 10 -10 16 0
14 7 11 14 -7z m131 6 c-4 -6 -1 -18 7 -27 11 -14 11 -16 -1 -9 -8 5 -17 3
-22 -5 -7 -10 -8 -9 -6 6 3 21 15 45 23 45 3 0 2 -5 -1 -10z m-1215 -15 c11
-13 10 -14 -5 -9 -14 6 -16 4 -10 -6 5 -9 4 -11 -3 -6 -14 8 -16 36 -3 36 5 0
14 -7 21 -15z m480 11 c0 -2 -8 -10 -17 -17 -16 -13 -17 -12 -4 4 13 16 21 21
21 13z m270 -11 c6 -7 20 -11 30 -8 11 3 20 1 20 -4 0 -13 -35 -10 -53 5 -8 7
-22 10 -31 6 -9 -3 -16 -2 -16 3 0 14 38 13 50 -2z m415 5 c3 -5 1 -10 -4 -10
-6 0 -11 5 -11 10 0 6 2 10 4 10 3 0 8 -4 11 -10z m690 0 c-3 -5 0 -10 7 -11
9 0 10 -2 1 -5 -7 -3 -9 -13 -6 -21 5 -13 2 -12 -14 3 -18 17 -19 20 -5 32 19
15 25 16 17 2z m-1751 -39 c-3 -3 -15 6 -27 18 l-22 24 27 -19 c14 -10 24 -21
22 -23z m150 -23 c-14 -22 -40 -4 -35 25 0 4 -5 7 -12 7 -8 0 -14 6 -14 14 0
10 11 6 33 -12 18 -14 30 -30 28 -34z m333 41 c-9 -6 -14 -16 -11 -22 4 -7 3
-9 -1 -4 -5 4 -16 0 -25 -8 -14 -13 -16 -12 -17 8 -2 17 0 19 7 7 9 -14 14 -7
11 13 -1 5 3 6 8 3 5 -3 14 1 21 9 7 9 16 13 19 9 3 -3 -2 -10 -12 -15z m66 6
c-3 -9 -8 -14 -10 -11 -3 3 -2 9 2 15 9 16 15 13 8 -4z m352 -5 c-3 -5 3 -11
12 -14 15 -4 15 -5 -1 -3 -11 1 -20 10 -22 20 -1 9 2 15 7 11 5 -3 7 -9 4 -14z
m445 10 c0 -5 -5 -10 -11 -10 -5 0 -7 5 -4 10 3 6 8 10 11 10 2 0 4 -4 4 -10z
m152 -5 c2 3 5 -1 5 -9 0 -11 -4 -12 -19 -3 -10 7 -18 16 -18 21 0 4 6 3 13
-3 8 -6 16 -9 19 -6z m35 -7 c-3 -8 -6 -5 -6 6 -1 11 2 17 5 13 3 -3 4 -12 1
-19z m163 18 c0 -2 -7 -7 -16 -10 -8 -3 -12 -2 -9 4 6 10 25 14 25 6z m-1535
-16 c-3 -5 -12 -10 -18 -10 -7 0 -6 4 3 10 19 12 23 12 15 0z m252 -7 c0 -10
-4 -10 -16 -1 -9 7 -18 13 -20 15 -2 1 5 1 16 0 11 0 20 -7 20 -14z m358 7 c3
-5 -1 -10 -10 -10 -9 0 -13 5 -10 10 3 6 8 10 10 10 2 0 7 -4 10 -10z m45 4
c0 -8 -19 -13 -24 -6 -3 5 1 9 9 9 8 0 15 -2 15 -3z m356 -18 c1 -9 -5 -12
-17 -9 -10 3 -19 9 -19 14 0 5 7 5 17 2 12 -5 14 -3 8 8 -5 8 -4 11 0 6 5 -4
10 -14 11 -21z m199 15 c3 -5 2 -12 -3 -15 -5 -3 -9 1 -9 9 0 17 3 19 12 6z
m289 -7 c5 -13 3 -14 -6 -6 -7 5 -24 12 -38 15 -22 4 -21 4 6 6 21 1 34 -5 38
-15z m-1029 -13 c-1 -8 -7 -16 -14 -17 -7 -2 -7 0 -1 3 7 3 8 9 1 17 -8 9 -7
13 3 13 8 0 13 -7 11 -16z m677 -1 c-5 -12 -3 -13 10 -3 15 13 28 8 28 -11 0
-6 -4 -6 -8 2 -7 10 -12 8 -25 -5 -16 -18 -17 -21 -17 -48 0 -8 -7 -15 -16
-15 -14 0 -14 1 0 16 9 8 14 19 11 24 -3 5 -1 11 4 15 6 3 8 12 5 20 -4 8 -10
12 -15 9 -5 -3 -9 -1 -9 5 0 5 9 9 19 8 13 -1 17 -6 13 -17z m101 5 c4 -8 1
-17 -5 -21 -7 -4 -8 -3 -4 4 4 7 2 12 -4 12 -6 0 -8 5 -5 10 8 14 12 13 18 -5z
m-1444 -2 c-3 -21 2 -33 13 -27 7 4 8 3 4 -4 -4 -7 -1 -12 8 -12 9 0 16 -5 16
-11 0 -25 26 1 31 32 l6 34 2 -32 c0 -17 -4 -35 -9 -38 -6 -4 -8 -10 -5 -15 3
-5 1 -11 -5 -15 -6 -3 -13 1 -16 9 -3 9 -11 13 -17 9 -5 -3 -7 -2 -4 4 4 5 -4
16 -17 23 -20 10 -24 23 -17 48 2 6 11 1 10 -5z m236 -21 c-1 -9 2 -24 8 -32
9 -12 9 -13 -3 -2 -15 13 -23 65 -9 57 4 -3 6 -13 4 -23z m333 17 c12 1 22 -2
22 -6 0 -5 -14 -8 -30 -7 -27 2 -30 0 -24 -19 4 -12 3 -19 -1 -15 -13 13 -15
59 -2 51 7 -4 22 -6 35 -4z m527 1 c-3 -5 -12 -10 -18 -10 -7 0 -6 4 3 10 19
12 23 12 15 0z m573 -16 c9 -5 9 -44 0 -44 -5 0 -7 7 -4 15 4 11 -3 19 -20 25
-33 13 -37 13 -28 -1 4 -7 1 -10 -6 -7 -8 2 -16 10 -18 18 -3 7 0 10 7 6 6 -4
11 -3 11 3 0 9 31 1 58 -15z m-1611 -3 c-1 -15 -4 -17 -14 -9 -15 12 -17 22
-3 13 6 -3 10 -1 10 4 0 6 2 11 4 11 3 0 4 -9 3 -19z m229 -6 c1 -8 -2 -15 -7
-15 -5 0 -9 10 -9 22 0 23 12 17 16 -7z m94 16 c0 -5 -7 -12 -16 -15 -8 -3
-12 -10 -9 -16 11 -17 -7 -11 -21 8 -16 21 -19 0 -4 -29 6 -10 8 -19 6 -19 -3
0 -12 14 -21 30 -16 31 -13 35 28 31 9 -1 17 3 17 8 0 6 5 11 10 11 6 0 10 -4
10 -9z m1192 2 c-10 -4 -10 -8 0 -21 8 -10 9 -13 1 -9 -6 4 -19 0 -27 -9 -9
-8 -16 -11 -16 -6 0 6 -9 8 -20 5 -21 -6 -29 20 -10 32 5 3 7 0 4 -8 -4 -10 3
-13 25 -9 20 3 28 8 24 18 -3 9 1 14 13 13 12 0 14 -3 6 -6z m162 -1 c3 -5 -1
-9 -9 -9 -8 0 -12 4 -9 9 3 4 7 8 9 8 2 0 6 -4 9 -8z m-1619 -19 c-4 -10 -8
-28 -8 -39 -1 -14 -6 -20 -15 -17 -7 3 -9 9 -4 12 5 3 8 14 6 24 -1 9 2 17 7
17 6 0 7 5 4 10 -3 6 -1 10 5 10 8 0 9 -7 5 -17z m322 2 c-4 -8 -2 -17 4 -20
5 -4 6 -11 2 -18 -4 -7 -9 -4 -13 9 -7 19 -3 44 7 44 3 0 3 -7 0 -15z m259 3
c-1 -7 -7 -22 -14 -33 -10 -18 -11 -18 -12 -2 0 9 6 17 13 18 8 0 8 2 -2 6
-11 5 -11 7 0 14 18 11 18 11 15 -3z m87 -20 c-10 -11 -19 -15 -21 -9 -2 6 -9
8 -14 5 -7 -4 -8 -2 -4 4 4 6 14 8 23 5 12 -5 15 -2 10 10 -4 11 -2 14 9 10
13 -5 12 -8 -3 -25z m165 11 c-15 -8 -16 -13 -5 -29 11 -19 12 -19 19 -2 6 15
7 16 7 0 1 -26 -17 -31 -29 -9 -11 22 -40 18 -40 -5 0 -7 -10 -18 -22 -24 -22
-10 -22 -10 -4 4 10 9 16 22 13 31 -4 9 -1 15 9 15 8 0 24 9 36 20 12 11 24
17 27 14 3 -3 -2 -10 -11 -15z m519 6 c0 -8 -4 -12 -9 -9 -5 3 -6 10 -3 15 9
13 12 11 12 -6z m-1516 -15 c6 0 7 5 4 10 -3 6 -2 10 3 10 12 0 23 -26 15 -34
-9 -8 -43 13 -42 27 0 9 2 9 6 0 2 -7 9 -13 14 -13z m619 10 c0 -5 -5 -10 -11
-10 -5 0 -7 5 -4 10 3 6 8 10 11 10 2 0 4 -4 4 -10z m140 -27 c-11 -17 -11
-17 -6 0 3 10 6 24 7 30 0 9 2 9 5 0 3 -7 0 -20 -6 -30z m340 27 c0 -5 -2 -10
-4 -10 -3 0 -8 5 -11 10 -3 6 -1 10 4 10 6 0 11 -4 11 -10z m43 -15 c-9 -15
-11 -15 -23 0 -11 13 -10 15 4 9 10 -4 16 -1 16 7 0 7 3 10 6 6 3 -3 2 -13 -3
-22z m200 10 c1 -5 -7 -11 -18 -12 l-20 -2 20 6 20 6 -20 8 c-16 7 -17 8 -2 6
10 -1 19 -6 20 -12z m502 1 c12 -12 12 -15 -1 -20 -10 -4 -13 -2 -8 6 5 8 0 9
-15 5 -18 -4 -20 -3 -10 9 14 17 17 17 34 0z m-1588 -16 c1 -11 -7 -26 -18
-34 -15 -10 -17 -15 -7 -19 9 -4 7 -6 -4 -6 -10 -1 -18 6 -18 14 0 8 5 15 12
15 6 0 3 6 -7 14 -11 8 -26 11 -34 8 -9 -3 -12 -1 -7 6 10 16 31 15 46 -3 16
-19 34 -20 27 -1 -3 8 -3 17 0 20 9 8 9 8 10 -14z m453 11 c0 -6 -4 -12 -8
-15 -5 -3 -9 1 -9 9 0 8 4 15 9 15 4 0 8 -4 8 -9z m158 -7 c-1 -5 -9 -9 -16
-10 -10 -2 -11 1 -1 12 12 14 24 13 17 -2z m-895 -1 c3 -5 -1 -14 -8 -20 -11
-10 -13 -9 -12 7 1 20 12 26 20 13z m470 -23 c3 -11 2 -18 -3 -15 -4 3 -10 14
-13 25 -3 11 -2 18 3 15 4 -3 10 -14 13 -25z m124 17 c0 -8 -6 -14 -14 -14
-17 0 -17 14 0 20 6 3 12 6 13 6 0 1 1 -5 1 -12z m64 -14 c-12 -20 -14 -14 -5
12 4 9 9 14 11 11 3 -2 0 -13 -6 -23z m559 5 c0 -18 -2 -20 -9 -8 -6 8 -7 18
-5 22 9 14 14 9 14 -14z m31 5 c13 -16 12 -17 -3 -4 -10 7 -18 15 -18 17 0 8
8 3 21 -13z m66 1 c-3 -3 -12 -4 -19 -1 -8 3 -5 6 6 6 11 1 17 -2 13 -5z m350
-8 c4 -4 1 -6 -7 -4 -8 2 -14 -2 -15 -9 0 -23 -11 -22 -11 1 0 23 17 29 33 12z
m43 4 c0 -5 -2 -10 -4 -10 -3 0 -8 5 -11 10 -3 6 -1 10 4 10 6 0 11 -4 11 -10z
m-1330 -25 c0 -7 -9 -15 -20 -18 -11 -3 -18 -1 -15 3 3 5 -4 12 -16 15 -11 4
-18 9 -16 12 3 2 15 -1 28 -7 19 -11 21 -10 16 3 -4 11 -2 14 9 10 7 -3 14
-11 14 -18z m344 6 c3 -5 -1 -11 -9 -14 -9 -4 -12 -1 -8 9 6 16 10 17 17 5z
m157 -1 c1 -5 2 -23 3 -39 0 -16 4 -33 9 -37 12 -12 8 -21 -13 -27 -11 -3 -20
-1 -20 4 0 5 7 9 16 9 12 0 14 4 7 13 -6 6 -9 20 -8 29 2 11 -2 15 -11 11 -8
-3 -14 0 -14 6 0 6 5 11 11 11 6 0 9 7 5 15 -3 8 -1 15 4 15 6 0 11 -4 11 -10z
m34 -8 c-3 -3 -11 0 -18 7 -9 10 -8 11 6 5 10 -3 15 -9 12 -12z m385 12 c0 -8
-19 -13 -24 -6 -3 5 1 9 9 9 8 0 15 -2 15 -3z m33 0 c8 -8 -3 -34 -15 -34 -6
0 -6 6 1 14 9 11 9 15 -1 19 -7 3 -8 6 -2 6 6 1 13 -2 17 -5z m414 0 c-3 -3
-12 -4 -19 -1 -8 3 -5 6 6 6 11 1 17 -2 13 -5z m-1717 -14 c0 -5 5 -10 11 -10
5 0 7 5 4 11 -4 6 2 5 13 -2 12 -7 18 -18 15 -23 -4 -6 -8 -5 -11 3 -4 11 -6
11 -13 0 -7 -11 -13 -9 -31 9 -19 19 -20 22 -5 22 9 0 17 -4 17 -10z m196 -19
c1 -12 -1 -19 -5 -15 -3 3 -6 9 -6 12 0 4 -4 13 -9 21 -6 9 -5 12 5 9 8 -3 15
-15 15 -27z m217 -11 c-7 -8 -22 24 -16 34 4 5 10 1 13 -10 4 -10 6 -21 3 -24z
m707 20 c0 5 5 10 11 10 8 0 8 -4 -1 -15 -11 -13 -15 -13 -41 1 -21 10 -29 11
-29 3 0 -7 -3 -10 -6 -6 -3 3 -3 10 1 16 4 8 16 6 36 -4 16 -9 29 -11 29 -5z
m282 11 c-8 -4 -14 -12 -14 -16 0 -4 6 -12 14 -16 10 -7 8 -9 -6 -9 -12 0 -16
5 -12 15 3 8 0 15 -7 15 -8 0 -6 4 3 10 8 5 20 10 25 10 6 0 4 -4 -3 -9z m409
-8 c12 -16 12 -17 -2 -6 -16 13 -29 8 -29 -9 0 -5 6 -6 13 -2 6 4 9 4 5 -1 -4
-4 -3 -15 4 -24 7 -9 1 -6 -12 6 -20 18 -21 24 -10 37 15 20 15 20 31 -1z
m-1216 -3 c3 -5 1 -10 -4 -10 -6 0 -11 5 -11 10 0 6 2 10 4 10 3 0 8 -4 11
-10z m58 -7 c-5 -13 -35 -11 -40 4 -2 6 7 10 20 9 14 0 23 -6 20 -13z m64 -5
c-3 -8 -6 -5 -6 6 -1 11 2 17 5 13 3 -3 4 -12 1 -19z m483 18 c0 -2 -7 -7 -16
-10 -8 -3 -12 -2 -9 4 6 10 25 14 25 6z m40 -5 c0 -6 -4 -13 -10 -16 -5 -3
-10 1 -10 9 0 9 5 16 10 16 6 0 10 -4 10 -9z m114 -7 c3 -8 2 -12 -4 -9 -6 3
-10 10 -10 16 0 14 7 11 14 -7z m-1078 -9 c-1 -8 -6 -18 -11 -22 -4 -4 -5 -2
-1 5 4 7 2 12 -6 12 -9 0 -9 3 2 10 19 12 19 13 16 -5z m118 -24 c-6 -6 -24
19 -24 34 1 6 7 1 15 -9 8 -11 12 -22 9 -25z m56 19 c-8 -5 -17 -7 -19 -4 -3
3 1 9 9 14 8 5 17 7 19 4 3 -3 -1 -9 -9 -14z m330 10 c0 -5 -7 -10 -16 -10 -8
0 -12 5 -9 10 3 6 10 10 16 10 5 0 9 -4 9 -10z m250 3 c0 -7 -45 -21 -53 -16
-14 8 1 19 27 19 14 0 26 -1 26 -3z m550 -3 c0 -5 -7 -7 -15 -4 -8 4 -15 8
-15 10 0 2 7 4 15 4 8 0 15 -4 15 -10z m118 -9 c-7 -11 -16 -17 -20 -14 -10 5
10 33 23 33 5 0 4 -9 -3 -19z m36 5 c-3 -8 -12 -17 -20 -20 -11 -4 -12 -2 -1
14 14 23 29 27 21 6z m136 8 c0 -8 -19 -13 -24 -6 -3 5 1 9 9 9 8 0 15 -2 15
-3z m-1742 -35 c9 0 12 -3 5 -5 -17 -7 -55 15 -47 28 4 7 10 5 16 -6 5 -9 17
-16 26 -17z m439 17 c5 -4 1 -6 -7 -4 -10 2 -14 -4 -13 -17 1 -20 1 -20 -13
-1 -8 11 -14 23 -14 28 0 9 36 5 47 -6z m175 -11 c3 -13 1 -22 -3 -19 -9 5
-13 44 -5 44 2 0 6 -11 8 -25z m399 -3 c-8 -15 -8 -21 1 -24 8 -3 6 -7 -4 -11
-13 -5 -16 -1 -12 20 6 31 14 46 21 40 2 -3 0 -14 -6 -25z m59 -2 c-7 -23 -5
-32 8 -41 15 -9 15 -10 1 -6 -9 3 -22 0 -29 -6 -10 -9 -11 -9 -4 3 5 8 10 24
11 35 4 26 11 45 17 45 3 0 1 -13 -4 -30z m146 -6 c1 -9 -1 -13 -4 -9 -4 4 -7
10 -7 13 0 4 -4 14 -9 22 -7 12 -6 13 4 3 8 -7 15 -20 16 -29z m124 26 c-19
-13 -30 -13 -30 0 0 6 10 10 23 10 18 0 19 -2 7 -10z m-1304 -15 c-1 -8 -5
-17 -8 -21 -5 -4 -4 16 1 34 3 9 9 -1 7 -13z m58 3 c-5 -8 -2 -9 10 -5 10 4
15 3 11 -3 -3 -6 -1 -10 6 -10 10 0 10 -3 1 -12 -16 -16 -15 -33 1 -19 8 6 18
7 22 3 5 -4 5 2 2 13 -7 18 -6 19 6 3 8 -10 16 -15 19 -12 4 3 9 1 13 -5 6
-10 -13 -16 -42 -12 -7 1 -13 -3 -13 -10 0 -8 -4 -8 -15 1 -9 8 -13 21 -9 32
3 12 1 18 -7 16 -7 -2 -15 5 -17 15 -2 9 2 17 8 17 6 0 8 -5 4 -12z m703 6
c-3 -3 -12 -4 -19 -1 -8 3 -5 6 6 6 11 1 17 -2 13 -5z m379 -9 c9 -8 11 -15 5
-15 -5 0 -13 5 -16 10 -4 6 -11 8 -16 5 -5 -4 -9 -1 -9 4 0 16 19 13 36 -4z
m-523 -1 c-7 -3 -9 -13 -6 -22 4 -14 3 -14 -5 -2 -12 16 -7 30 11 29 9 0 9 -2
0 -5z m254 -23 c2 -18 -24 -38 -35 -26 -3 3 0 5 6 5 7 0 12 7 12 15 0 8 -6 15
-12 15 -9 0 -8 3 2 10 17 11 23 6 27 -19z m-1037 9 c8 -5 11 -10 5 -10 -5 0
-17 5 -25 10 -8 5 -10 10 -5 10 6 0 17 -5 25 -10z m56 -8 c-10 -2 -22 0 -28 6
-6 6 0 7 19 4 21 -5 23 -7 9 -10z m282 9 c11 -7 11 -9 -1 -14 -16 -6 -27 0
-27 15 0 10 11 10 28 -1z m88 -7 c-9 -8 -16 -19 -16 -24 0 -5 -7 -7 -15 -4 -8
4 -12 10 -9 15 3 5 9 7 14 4 4 -3 10 2 14 10 3 8 10 15 16 15 6 0 4 -7 -4 -16z
m214 6 c0 -5 -5 -10 -11 -10 -5 0 -7 5 -4 10 3 6 8 10 11 10 2 0 4 -4 4 -10z
m28 -24 c-13 -10 -12 -14 10 -30 24 -18 25 -18 19 -1 -7 16 -5 16 10 4 15 -12
16 -12 11 2 -6 14 -1 14 33 -3 21 -10 39 -24 38 -31 0 -9 -2 -9 -6 1 -7 19
-23 14 -17 -5 5 -15 4 -15 -4 -3 -6 8 -8 18 -6 22 6 10 -18 11 -41 2 -12 -5
-13 -9 -5 -14 8 -5 7 -9 -5 -13 -9 -4 -14 -3 -12 1 7 10 -19 32 -29 24 -4 -4
-4 -1 1 7 6 10 2 12 -13 7 -11 -4 -23 -2 -27 3 -3 7 0 8 10 5 9 -4 15 -3 14 2
-4 21 2 35 11 29 6 -3 10 2 11 12 0 13 2 14 6 4 3 -8 -1 -19 -9 -25z m263 11
c-10 -9 -11 -8 -5 6 3 10 9 15 12 12 3 -3 0 -11 -7 -18z m46 1 c-3 -8 -6 -5
-6 6 -1 11 2 17 5 13 3 -3 4 -12 1 -19z m796 5 c-5 -12 -3 -14 7 -8 9 5 11 4
6 -4 -4 -7 -17 -9 -29 -6 -21 6 -21 5 -4 -8 17 -14 16 -15 -7 -13 -19 1 -22 4
-15 17 4 9 5 19 1 23 -3 4 1 4 10 1 9 -4 19 -2 23 4 10 17 15 13 8 -6z m-1171
-26 c-7 -8 -9 -17 -5 -20 3 -4 2 -7 -4 -7 -12 0 -26 30 -18 38 3 3 5 0 5 -7 0
-7 5 -9 11 -6 6 4 8 14 4 24 -5 12 -4 13 6 4 9 -9 9 -16 1 -26z m210 26 c-10
-4 -10 -8 0 -21 12 -15 11 -16 -4 -3 -19 14 -15 32 5 30 8 0 8 -2 -1 -6z m250
-25 c-8 -8 -9 -4 -5 13 4 13 8 18 11 10 2 -7 -1 -18 -6 -23z m473 23 c3 -5 2
-12 -3 -15 -5 -3 -9 1 -9 9 0 17 3 19 12 6z m68 -4 c3 -8 -1 -14 -8 -14 -7 0
-11 6 -8 14 3 7 6 13 8 13 2 0 5 -6 8 -13z m48 -4 c13 -17 13 -17 -6 -3 -11 8
-22 16 -24 17 -2 2 0 3 6 3 6 0 17 -8 24 -17z m-1440 -6 c-1 -12 -15 -9 -19 4
-3 6 1 10 8 8 6 -3 11 -8 11 -12z m1095 4 c-3 -5 8 -26 24 -46 33 -42 35 -45
20 -45 -5 0 -10 6 -10 13 0 6 -14 25 -31 41 -23 22 -27 31 -17 37 17 11 20 11
14 0z m522 -4 l-26 -12 20 -28 c12 -16 14 -25 6 -22 -7 3 -18 17 -25 31 -10
22 -9 26 10 34 33 13 46 10 15 -3z m-1801 -3 c-3 -3 -12 -4 -19 -1 -8 3 -5 6
6 6 11 1 17 -2 13 -5z m533 -42 c0 -8 -8 -6 -21 7 -12 11 -18 25 -14 31 8 13
34 -16 35 -38z m205 38 c13 -6 15 -9 5 -9 -8 0 -22 4 -30 9 -18 12 -2 12 25 0z
m575 0 c0 -5 -5 -10 -11 -10 -5 0 -7 5 -4 10 3 6 8 10 11 10 2 0 4 -4 4 -10z
m87 -20 c1 -11 -2 -20 -8 -20 -5 0 -9 5 -9 11 0 5 -4 7 -10 4 -11 -7 -14 18
-4 28 11 11 30 -3 31 -23z m37 21 c3 -5 0 -11 -7 -14 -8 -3 -14 1 -14 9 0 16
13 19 21 5z m-1334 -5 c0 -2 -7 -7 -16 -10 -8 -3 -12 -2 -9 4 6 10 25 14 25 6z
m344 -29 c8 -31 3 -30 -16 3 -12 21 -13 27 -3 24 7 -3 16 -15 19 -27z m456 19
c0 -20 -17 -29 -26 -15 -4 8 -3 9 4 5 7 -4 12 -3 12 3 0 5 -6 12 -12 14 -8 3
-6 6 5 6 9 1 17 -5 17 -13z m775 4 c3 -5 -1 -10 -10 -10 -9 0 -13 5 -10 10 3
6 8 10 10 10 2 0 7 -4 10 -10z m-1688 -15 c0 -11 -4 -12 -14 -4 -7 6 -13 13
-13 15 0 2 6 4 13 4 8 0 14 -7 14 -15z m850 8 c-4 -3 -1 -13 6 -22 11 -14 10
-14 -5 -2 -14 10 -21 11 -31 2 -8 -6 -17 -8 -20 -4 -13 12 -7 -13 6 -27 10
-12 9 -12 -6 -1 -18 14 -19 32 -2 33 6 0 19 7 30 14 20 15 33 19 22 7z m96 -6
c3 -8 -1 -14 -8 -14 -7 0 -11 6 -8 14 3 7 6 13 8 13 2 0 5 -6 8 -13z m171 -2
c3 -8 1 -15 -4 -15 -6 0 -10 7 -10 15 0 8 2 15 4 15 2 0 6 -7 10 -15z m150 -6
c-3 -5 -10 -7 -15 -3 -5 3 -7 10 -3 15 3 5 10 7 15 3 5 -3 7 -10 3 -15z m244
-4 c-3 -3 -9 2 -12 12 -6 14 -5 15 5 6 7 -7 10 -15 7 -18z m-1188 5 c0 -5 -4
-10 -10 -10 -5 0 -10 5 -10 10 0 6 5 10 10 10 6 0 10 -4 10 -10z m701 -12 c8
-14 6 -20 -8 -25 -10 -4 -21 -11 -25 -17 -5 -7 -8 -5 -8 5 0 9 7 19 15 23 8 3
15 10 15 16 0 6 -3 9 -7 7 -5 -3 -17 -1 -28 4 -17 6 -15 7 8 6 16 -1 33 -9 38
-19z m608 6 c4 3 8 -4 8 -15 2 -17 0 -17 -13 -5 -8 8 -14 21 -13 28 0 10 2 10
6 0 2 -6 8 -10 12 -8z m-1659 -4 c0 -5 -2 -10 -4 -10 -3 0 -8 5 -11 10 -3 6
-1 10 4 10 6 0 11 -4 11 -10z m390 -6 c0 -2 -7 -4 -15 -4 -8 0 -15 4 -15 10 0
5 7 7 15 4 8 -4 15 -8 15 -10z m30 6 c0 -6 10 -15 23 -20 l22 -9 -24 0 c-16
-1 -21 -5 -17 -16 3 -8 2 -14 -2 -13 -4 1 -17 -3 -29 -10 -13 -7 -23 -10 -23
-7 0 4 -5 3 -11 0 -11 -7 30 -42 44 -37 4 1 7 -5 7 -13 0 -22 -27 -18 -33 5
-4 15 -12 18 -38 16 -19 -2 -24 -1 -11 1 12 2 20 8 17 12 -4 8 41 56 53 56 4
0 6 10 6 23 -1 12 3 22 7 22 5 0 9 -5 9 -10z m134 -15 c3 -8 0 -17 -6 -21 -6
-4 -8 -3 -4 4 3 6 2 13 -4 17 -5 3 -10 1 -10 -4 0 -6 -4 -11 -9 -11 -5 0 -7 9
-4 19 5 21 28 18 37 -4z m1056 -1 c0 -2 -9 0 -20 6 -11 6 -20 13 -20 16 0 2 9
0 20 -6 11 -6 20 -13 20 -16z m120 14 c0 -11 -22 -10 -39 1 -10 7 -7 9 12 8
15 -1 27 -5 27 -9z m51 -5 c12 -14 12 -16 0 -8 -11 6 -13 4 -8 -8 5 -12 0 -15
-24 -12 -17 3 -27 0 -24 -5 10 -15 -11 -12 -24 4 -10 12 -7 14 19 12 21 -2 32
3 36 16 7 22 8 22 25 1z m-1849 0 c-6 -2 -9 -10 -6 -15 4 -7 2 -8 -5 -4 -13 9
-5 26 12 25 9 0 8 -2 -1 -6z m1168 -31 c-5 -2 -6 -10 -3 -18 8 -22 -5 -17 -18
7 -8 17 -8 20 1 14 9 -5 10 -1 5 16 -7 23 -7 23 8 4 9 -11 12 -21 7 -23z m165
28 c3 -5 1 -10 -4 -10 -6 0 -11 5 -11 10 0 6 2 10 4 10 3 0 8 -4 11 -10z
m-1291 -8 c3 -5 -1 -9 -9 -9 -8 0 -12 4 -9 9 3 4 7 8 9 8 2 0 6 -4 9 -8z m76
4 c0 -2 -9 -6 -20 -9 -11 -3 -18 -1 -14 4 5 9 34 13 34 5z m162 -33 c6 -8 4
-11 -7 -9 -8 1 -15 5 -15 9 1 41 2 42 7 27 3 -8 10 -20 15 -27z m71 21 c20 3
24 1 20 -11 -5 -12 -7 -12 -14 -1 -6 8 -9 9 -9 1 0 -6 -8 -10 -17 -9 -10 2
-21 -1 -24 -6 -3 -5 -9 -3 -12 6 -4 9 -2 16 4 16 6 0 7 6 3 13 -6 9 -4 9 8 -1
9 -7 27 -11 41 -8z m433 -16 c8 2 14 -2 14 -8 0 -6 -4 -8 -10 -5 -15 9 -12
-18 4 -41 14 -19 13 -20 -7 -18 -33 4 -33 4 -19 13 12 7 12 13 0 34 -17 33
-24 33 -49 5 l-20 -23 16 27 c13 21 13 27 3 32 -7 3 -2 3 11 0 18 -5 22 -3 17
7 -4 8 0 5 9 -6 9 -11 23 -19 31 -17z m494 10 c0 -18 -2 -20 -9 -8 -6 8 -7 18
-5 22 9 14 14 9 14 -14z m278 4 c-10 -2 -18 -8 -18 -13 0 -6 -4 -7 -10 -4 -15
9 12 34 30 27 12 -5 12 -7 -2 -10z m-578 -3 c0 -4 -7 -10 -16 -13 -10 -4 -13
-2 -8 6 5 8 2 9 -10 5 -9 -4 -15 -3 -11 2 6 11 45 10 45 0z m70 -9 c6 -11 8
-20 6 -20 -3 0 -10 9 -16 20 -6 11 -8 20 -6 20 3 0 10 -9 16 -20z m167 -2 c-3
-8 -6 -5 -6 6 -1 11 2 17 5 13 3 -3 4 -12 1 -19z m33 12 c0 -5 -5 -10 -11 -10
-5 0 -7 5 -4 10 3 6 8 10 11 10 2 0 4 -4 4 -10z m364 -6 c3 -8 2 -12 -4 -9 -6
3 -10 10 -10 16 0 14 7 11 14 -7z m-1477 -14 c-5 -31 -17 -37 -15 -7 1 15 6
27 10 27 4 0 7 -9 5 -20z m43 10 c0 -5 -7 -7 -15 -4 -8 4 -15 8 -15 10 0 2 7
4 15 4 8 0 15 -4 15 -10z m470 -5 c0 -8 -4 -15 -10 -15 -5 0 -7 7 -4 15 4 8 8
15 10 15 2 0 4 -7 4 -15z m198 -16 c13 -21 13 -21 -12 -3 -27 20 -35 37 -13
28 7 -2 18 -14 25 -25z m558 16 c13 -13 13 -15 1 -15 -8 0 -17 7 -21 15 -3 8
-3 15 0 15 3 0 12 -7 20 -15z m101 9 c-3 -3 -12 -4 -19 -1 -8 3 -5 6 6 6 11 1
17 -2 13 -5z m-967 -19 c0 -2 -6 -5 -13 -8 -8 -3 -14 1 -14 8 0 7 6 11 14 8 7
-3 13 -6 13 -8z m144 6 c3 -5 -1 -11 -9 -14 -9 -4 -12 -1 -8 9 6 16 10 17 17
5z m-574 -11 c0 -5 -5 -10 -11 -10 -5 0 -7 5 -4 10 3 6 8 10 11 10 2 0 4 -4 4
-10z m811 -4 c-15 -8 -20 -16 -12 -20 6 -4 11 -12 11 -17 0 -6 -7 -4 -15 5
-20 19 -19 33 3 39 32 9 37 6 13 -7z m216 -7 c1 -10 -7 -21 -18 -24 -10 -4
-19 -10 -19 -15 0 -14 27 -19 39 -7 7 7 11 8 9 2 -2 -5 2 -11 7 -11 6 -1 9 2
8 7 -2 5 -4 13 -5 18 -3 9 1 11 28 11 8 0 12 -5 9 -10 -4 -6 -11 -7 -17 -4 -7
5 -8 2 -2 -7 17 -27 11 -36 -22 -37 -19 -1 -34 3 -34 9 0 6 -4 8 -9 5 -4 -3
-13 6 -20 20 -6 14 -7 23 -2 20 11 -7 35 20 27 32 -3 5 1 9 7 9 7 0 14 -8 14
-18z m353 15 c0 -8 -19 -13 -24 -6 -3 5 1 9 9 9 8 0 15 -2 15 -3z m27 -16 c-3
-8 -6 -5 -6 6 -1 11 2 17 5 13 3 -3 4 -12 1 -19z m154 5 c13 -16 12 -17 -3 -4
-10 7 -18 15 -18 17 0 8 8 3 21 -13z m202 0 c-4 -10 -2 -14 4 -10 5 3 10 0 10
-7 0 -8 -6 -12 -14 -9 -14 5 -17 25 -6 36 11 11 13 8 6 -10z m-1837 -2 c-4 -5
0 -11 6 -14 7 -3 3 -4 -9 -4 -17 1 -19 4 -11 14 12 15 22 18 14 4z m142 -8
c-2 -10 3 -17 10 -15 6 1 11 -1 11 -5 -1 -5 0 -11 1 -15 6 -20 4 -34 -7 -45
-14 -15 -27 -17 -18 -3 3 6 0 10 -7 11 -10 0 -10 2 1 6 11 5 11 7 0 15 -10 6
-7 7 10 3 16 -5 21 -4 17 4 -4 6 -12 11 -17 11 -6 0 -17 7 -25 15 -14 13 -14
15 0 15 9 0 16 5 16 10 0 6 2 10 5 10 3 0 5 -8 3 -17z m217 -1 c-3 -3 -11 0
-18 7 -9 10 -8 11 6 5 10 -3 15 -9 12 -12z m245 -14 c0 -4 -5 -10 -12 -14 -7
-4 -8 -3 -4 4 4 7 1 12 -9 12 -10 0 -14 -5 -9 -12 5 -10 4 -10 -6 -1 -7 6 -10
19 -7 28 6 13 10 13 27 3 11 -7 20 -16 20 -20z m377 26 c-3 -3 -12 -4 -19 -1
-8 3 -5 6 6 6 11 1 17 -2 13 -5z m278 -4 c-3 -6 0 -13 8 -16 20 -7 10 -44 -12
-43 -10 0 -11 2 -3 6 6 2 12 12 12 20 0 13 -3 13 -15 3 -8 -7 -15 -9 -15 -6 0
11 20 46 26 46 3 0 2 -5 -1 -10z m143 -16 c1 -15 -2 -23 -8 -19 -6 4 -8 11 -5
16 4 5 -2 9 -12 10 -16 0 -16 1 2 9 11 5 20 9 20 9 0 1 2 -10 3 -25z m197 16
c3 -6 -1 -7 -9 -4 -18 7 -21 14 -7 14 6 0 13 -4 16 -10z m130 -6 c-15 -16 -29
-19 -21 -5 4 5 0 11 -6 14 -7 2 -1 4 14 4 23 0 25 -2 13 -13z m39 -25 c-17
-19 -18 -33 -1 -26 7 3 20 -8 29 -24 16 -28 16 -28 -4 -16 -12 7 -30 20 -40
30 -10 10 -23 15 -28 12 -6 -4 -10 1 -10 9 0 18 16 22 22 6 2 -6 11 -1 20 10
10 11 13 20 7 20 -5 0 -7 5 -3 11 4 8 9 7 15 -2 5 -8 2 -20 -7 -30z m-1569 21
c3 -5 2 -10 -4 -10 -5 0 -13 5 -16 10 -3 6 -2 10 4 10 5 0 13 -4 16 -10z m108
-16 c12 3 16 3 10 0 -7 -3 -13 -10 -13 -15 0 -6 4 -7 10 -4 6 4 7 -1 3 -11 -5
-15 -7 -15 -15 0 -10 19 -38 22 -38 4 0 -6 -7 -3 -15 8 -18 24 -19 31 0 31 8
0 12 -4 9 -9 -3 -4 0 -8 5 -8 6 0 12 8 12 18 1 16 2 16 6 -1 3 -13 11 -16 26
-13z m200 -1 c11 -2 23 -6 26 -10 3 -3 -4 -3 -16 0 -14 3 -23 0 -23 -6 0 -7
-5 -4 -11 7 -9 14 -13 16 -20 5 -11 -18 -23 -4 -15 17 5 14 9 14 22 3 9 -7 25
-15 37 -16z m37 17 c0 -5 -7 -10 -16 -10 -8 0 -12 5 -9 10 3 6 10 10 16 10 5
0 9 -4 9 -10z m390 0 c0 -5 -7 -10 -16 -10 -8 0 -12 5 -9 10 3 6 10 10 16 10
5 0 9 -4 9 -10z m590 -11 c0 -5 -7 -12 -15 -15 -17 -7 -20 -40 -4 -49 5 -4 18
0 28 9 15 14 18 14 18 1 0 -8 -4 -12 -9 -9 -5 4 -12 -3 -15 -15 -3 -12 -11
-21 -19 -21 -7 0 -11 -8 -9 -20 2 -13 -4 -24 -17 -31 -20 -11 -20 -10 -5 11 8
12 13 29 10 36 -3 9 2 14 12 14 16 0 16 2 -2 18 -14 12 -18 23 -13 37 4 11 3
23 -4 28 -6 5 0 5 14 1 22 -6 23 -5 11 10 -12 14 -12 16 3 10 9 -3 16 -10 16
-15z m303 -10 c5 -4 -2 -6 -17 -6 -23 0 -24 2 -14 21 9 16 12 18 16 6 3 -8 9
-18 15 -21z m-1171 7 c7 4 8 2 4 -4 -4 -7 -2 -12 4 -12 6 0 8 -5 4 -12 -8 -12
-35 17 -33 36 0 6 3 5 6 -2 2 -6 10 -9 15 -6z m726 -18 c7 -10 18 -15 24 -12
7 5 8 2 3 -6 -6 -10 -4 -12 8 -7 10 3 17 2 17 -3 0 -6 -4 -10 -10 -10 -5 0
-10 -7 -10 -16 0 -8 -4 -13 -10 -9 -5 3 -7 12 -4 19 6 15 -21 40 -35 32 -5 -4
-13 -1 -17 5 -5 8 -3 9 6 4 8 -5 11 -3 8 6 -3 8 -11 13 -17 11 -7 -1 -10 2 -6
8 8 12 25 3 43 -22z m-668 14 c0 -13 -12 -22 -22 -16 -10 6 -1 24 13 24 5 0 9
-4 9 -8z m605 -2 c-3 -5 -12 -10 -18 -10 -7 0 -6 4 3 10 19 12 23 12 15 0z
m-1210 -19 c-3 -6 -14 -10 -23 -10 -15 1 -15 2 1 6 9 2 17 9 17 15 0 6 3 9 6
5 3 -3 3 -10 -1 -16z m885 -7 c0 -14 -4 -23 -9 -20 -5 3 -7 15 -4 26 7 28 13
25 13 -6z m675 8 c-3 -3 -11 0 -18 7 -9 10 -8 11 6 5 10 -3 15 -9 12 -12z
m217 -36 c3 -39 -14 -61 -25 -32 -4 9 -3 15 1 15 17 -3 19 3 12 37 -5 20 -5
33 0 28 5 -5 10 -27 12 -48z m-1866 19 c-2 -14 -16 -22 -16 -10 0 3 0 12 0 21
0 8 4 13 9 10 5 -4 8 -13 7 -21z m791 19 c-3 -3 -12 -4 -19 -1 -8 3 -5 6 6 6
11 1 17 -2 13 -5z m103 2 c0 -2 -8 -10 -17 -17 -16 -13 -17 -12 -4 4 13 16 21
21 21 13z m658 -27 c-3 -8 -7 -3 -11 10 -4 17 -3 21 5 13 5 -5 8 -16 6 -23z
m129 9 c-3 -8 -6 -5 -6 6 -1 11 2 17 5 13 3 -3 4 -12 1 -19z m-1322 2 c-3 -5
-14 -10 -23 -9 -14 0 -13 2 3 9 27 11 27 11 20 0z m92 -25 c1 -19 -3 -32 -8
-29 -10 6 -9 64 1 64 3 0 6 -16 7 -35z m43 19 c0 -8 -5 -12 -10 -9 -6 4 -8 11
-5 16 9 14 15 11 15 -7z m84 0 c19 -19 20 -25 4 -21 -7 1 -12 -4 -10 -11 1 -8
-2 -11 -8 -7 -6 3 -8 11 -5 16 6 9 -3 12 -37 12 -10 0 -15 4 -12 8 3 5 9 7 14
4 5 -3 11 -1 15 5 9 14 21 12 39 -6z m351 6 c-3 -5 -12 -10 -18 -10 -7 0 -6 4
3 10 19 12 23 12 15 0z m705 -12 c0 -6 -6 -5 -15 2 -8 7 -15 14 -15 16 0 2 7
1 15 -2 8 -4 15 -11 15 -16z m-1441 -2 c9 -10 9 -16 1 -21 -6 -4 -14 -4 -17
-1 -4 3 -1 6 6 6 7 0 9 5 6 10 -4 6 -11 8 -16 5 -5 -4 -9 -1 -9 4 0 15 15 14
29 -3z m551 6 c0 -4 -9 -8 -20 -8 -11 0 -20 4 -20 8 0 4 9 8 20 8 11 0 20 -4
20 -8z m1079 -6 c9 -10 9 -16 1 -21 -13 -8 -42 14 -34 26 8 13 20 11 33 -5z
m-1540 -13 c9 -10 8 -13 -4 -13 -9 0 -14 -4 -11 -9 3 -4 -4 -17 -17 -27 l-22
-19 20 24 20 24 -21 -5 c-12 -3 -21 0 -21 7 0 7 8 10 19 7 26 -6 22 7 -4 18
-22 9 -22 9 3 7 14 0 31 -7 38 -14z m1434 2 c4 -8 1 -17 -5 -21 -7 -4 -8 -3
-4 4 4 7 2 12 -4 12 -6 0 -8 5 -5 10 8 14 12 13 18 -5z m-1226 -18 c20 -22 20
-23 2 -24 -11 -1 -17 2 -14 8 4 5 1 9 -5 9 -6 0 -9 4 -6 9 4 5 0 12 -6 14 -7
3 -8 6 -3 6 6 0 20 -10 32 -22z m203 17 c0 -8 -19 -13 -24 -6 -3 5 1 9 9 9 8
0 15 -2 15 -3z m-655 -14 c3 -6 -1 -7 -9 -4 -18 7 -21 14 -7 14 6 0 13 -4 16
-10z m32 -10 c1 -11 -4 -20 -13 -20 -8 0 -14 -6 -14 -13 0 -7 -10 -18 -22 -26
l-23 -14 20 22 c16 19 17 24 5 31 -11 7 -8 10 13 10 15 0 26 3 26 8 -2 10 0
22 4 22 1 0 3 -9 4 -20z m1503 6 c-1 -5 4 -13 12 -17 9 -6 9 -9 1 -9 -7 0 -17
10 -24 21 -8 16 -8 20 1 17 6 -2 11 -7 10 -12z m90 -2 c0 -2 -7 -4 -15 -4 -8
0 -15 4 -15 10 0 5 7 7 15 4 8 -4 15 -8 15 -10z m-1660 -5 c0 -6 -5 -7 -11 -3
-6 3 -14 1 -18 -5 -5 -8 -12 -8 -24 2 -15 10 -13 12 18 14 19 1 35 -3 35 -8z
m343 -4 c-3 -9 -8 -14 -10 -11 -3 3 -2 9 2 15 9 16 15 13 8 -4z m87 -6 c0 -5
-10 -9 -21 -9 -18 0 -19 2 -9 15 12 15 30 12 30 -6z m1325 13 c-12 -8 -13 -22
-2 -39 9 -14 -2 -45 -14 -37 -5 3 -6 10 -3 16 5 7 1 9 -9 5 -9 -3 -19 -2 -22
4 -4 5 -3 9 2 8 20 -4 34 2 28 11 -9 15 2 40 17 40 8 0 9 -3 3 -8z m-1650 -12
c3 -5 -1 -10 -10 -10 -9 0 -13 5 -10 10 3 6 8 10 10 10 2 0 7 -4 10 -10z m563
4 c-4 -3 -12 -6 -20 -8 -7 -1 -20 -6 -28 -11 -13 -8 -13 -7 -1 8 7 9 23 17 34
17 11 0 18 -3 15 -6z m770 -25 c-3 -8 -7 -3 -11 10 -4 17 -3 21 5 13 5 -5 8
-16 6 -23z m-1283 11 c3 -5 2 -10 -4 -10 -5 0 -13 5 -16 10 -3 6 -2 10 4 10 5
0 13 -4 16 -10z m431 3 c-10 -11 -37 -12 -30 -2 3 5 12 9 21 9 9 0 13 -3 9 -7z
m1077 -3 c3 6 4 5 3 -2 -2 -7 -9 -12 -15 -10 -7 1 -22 -3 -34 -8 -20 -10 -20
-10 -5 3 10 8 14 18 10 22 -4 4 3 3 15 -4 14 -7 23 -7 26 -1z m147 -9 c-5 -11
-15 -23 -22 -27 -7 -5 -8 -2 -3 7 21 37 44 55 25 20z m-1530 -1 c0 -5 -5 -10
-11 -10 -5 0 -7 5 -4 10 3 6 8 10 11 10 2 0 4 -4 4 -10z m191 -7 c10 -11 10
-14 2 -9 -9 5 -13 0 -13 -14 0 -12 -4 -18 -10 -15 -5 3 -10 1 -10 -4 0 -6 -7
-11 -16 -11 -13 0 -14 -3 -5 -14 7 -9 26 -13 49 -11 32 3 35 2 20 -9 -10 -7
-15 -16 -11 -19 3 -4 -1 -7 -11 -7 -11 0 -15 5 -10 13 4 6 4 9 -1 5 -4 -4 -15
-2 -23 5 -11 9 -11 4 2 -15 11 -17 14 -28 7 -28 -6 0 -11 -5 -11 -11 0 -7 7
-8 18 -4 9 4 25 8 34 10 15 3 16 1 5 -15 -7 -12 -15 -16 -21 -10 -5 5 -17 5
-30 -2 -12 -6 -18 -7 -14 -3 4 4 3 16 -3 26 -7 14 -6 19 3 19 8 0 9 3 3 8 -5
4 -11 14 -13 22 -2 8 -11 22 -20 31 -15 14 -18 14 -34 -5 -10 -12 -17 -16 -18
-8 0 6 6 12 13 12 9 0 9 2 -1 9 -10 6 -8 10 10 15 19 5 21 8 8 17 -13 9 -13
10 0 6 8 -2 15 -9 15 -14 0 -27 18 -25 44 4 16 18 26 34 23 37 -3 3 -3 6 0 6
3 0 12 -8 19 -17z m69 7 c0 -5 -6 -10 -14 -10 -15 0 -30 -27 -27 -47 1 -7 -2
-13 -6 -13 -5 0 -9 9 -10 20 -1 11 3 20 9 20 5 0 7 7 4 16 -3 8 -2 12 3 9 5
-3 12 -1 16 5 8 13 25 13 25 0z m135 0 c-3 -5 -1 -10 6 -10 7 0 10 -3 6 -6 -9
-9 -28 6 -22 17 4 5 8 9 11 9 3 0 2 -4 -1 -10z m875 2 c-36 -17 -60 -38 -60
-54 0 -10 -4 -18 -9 -18 -5 0 -8 7 -7 16 3 20 55 64 75 63 14 0 14 -1 1 -7z
m-1440 -33 c-12 -41 -24 -53 -14 -14 7 32 13 45 19 45 2 0 0 -14 -5 -31z m303
11 c3 -11 3 -20 1 -20 -2 0 -8 9 -14 20 -6 11 -7 20 -2 20 6 0 12 -9 15 -20z
m227 10 c0 -5 -5 -10 -11 -10 -5 0 -7 5 -4 10 3 6 8 10 11 10 2 0 4 -4 4 -10z
m-451 -36 c7 4 8 1 5 -8 -3 -9 -9 -15 -12 -14 -22 2 -32 -3 -26 -14 4 -7 9
-24 10 -38 3 -21 1 -22 -7 -7 -6 9 -7 22 -3 29 5 8 2 9 -9 5 -17 -6 -23 4 -10
17 13 12 10 46 -4 46 -8 0 -11 5 -8 11 5 7 15 3 30 -11 13 -12 28 -19 34 -16z
m406 27 c-9 -8 -36 -10 -30 -2 2 4 11 8 20 8 8 0 13 -3 10 -6z m960 0 c3 -5 2
-12 -3 -15 -5 -3 -9 1 -9 9 0 17 3 19 12 6z m-1598 -7 c-3 -3 -12 -4 -19 -1
-8 3 -5 6 6 6 11 1 17 -2 13 -5z m28 -13 c-3 -6 -11 -11 -16 -11 -5 0 -4 6 3
14 14 16 24 13 13 -3z m92 -1 c1 -11 -2 -20 -5 -20 -4 0 -8 9 -9 20 -1 11 2
20 5 20 4 0 8 -9 9 -20z m1799 -5 c0 -15 -4 -21 -9 -16 -5 5 -7 17 -4 25 9 23
13 20 13 -9z m-1244 8 c-10 -4 -9 -10 5 -27 l18 -21 -22 19 c-27 23 -29 36 -5
35 11 0 12 -2 4 -6z m-350 -35 c-6 -6 -12 -6 -17 3 -5 8 -4 10 3 5 7 -4 12 0
13 11 0 12 2 13 6 5 3 -8 1 -18 -5 -24z m306 19 c10 3 13 1 7 -4 -13 -10 -13
-43 -1 -62 6 -9 5 -12 -2 -7 -5 3 -13 0 -15 -6 -3 -7 -4 4 -2 25 1 20 -1 37
-6 37 -5 0 -9 8 -8 18 0 9 3 12 5 5 3 -7 13 -9 22 -6z m937 3 c-3 -5 -12 -10
-18 -10 -7 0 -6 4 3 10 19 12 23 12 15 0z m246 -9 c-7 -5 -12 -12 -11 -17 1
-5 -4 -10 -12 -12 -9 -2 -8 0 2 7 13 9 12 11 -5 11 -18 0 -17 2 5 13 26 14 44
12 21 -2z m-1724 -5 c-3 -8 -3 -17 1 -20 12 -12 10 -33 -4 -33 -10 0 -11 4 -3
13 7 8 6 13 -1 16 -10 3 -4 38 7 38 3 0 3 -6 0 -14z m499 2 c3 -4 -1 -5 -10
-4 -8 1 -18 5 -22 8 -3 4 1 5 10 4 8 -1 18 -5 22 -8z m1004 8 c0 -2 -8 -10
-17 -17 -16 -13 -17 -12 -4 4 13 16 21 21 21 13z m289 -10 c14 -17 0 -29 -23
-20 -17 7 -20 16 -9 27 10 11 19 8 32 -7z m-1854 -6 c-3 -5 -14 -10 -23 -11
-14 0 -13 -3 6 -16 23 -16 30 -43 11 -43 -5 0 -7 5 -4 11 4 6 -3 18 -15 26
-22 15 -22 17 -5 30 22 15 39 17 30 3z m235 -11 c0 -5 -4 -9 -8 -9 -5 0 -9 7
-9 15 0 8 4 12 9 9 4 -3 8 -9 8 -15z m30 11 c0 -5 -5 -10 -11 -10 -5 0 -7 5
-4 10 3 6 8 10 11 10 2 0 4 -4 4 -10z m-163 -28 c1 -12 -1 -22 -6 -22 -5 0 -8
8 -7 18 2 9 -2 21 -8 25 -7 6 -6 7 3 5 8 -2 16 -14 18 -26z m243 24 c0 -2 -7
-6 -15 -10 -8 -3 -15 -1 -15 4 0 6 7 10 15 10 8 0 15 -2 15 -4z m65 -15 c3 -5
2 -12 -3 -15 -5 -3 -9 1 -9 9 0 17 3 19 12 6z m301 -9 c-3 -6 -19 -15 -35 -20
-26 -9 -29 -8 -24 6 6 15 5 16 -13 2 -18 -14 -18 -14 -5 3 10 12 17 14 26 7
14 -12 45 -3 45 13 0 6 3 8 6 4 3 -3 3 -10 0 -15z m298 3 c-4 -8 -10 -13 -14
-10 -5 3 -11 1 -15 -5 -9 -15 -22 -12 -29 6 -3 8 -2 13 2 11 4 -3 16 -1 27 4
30 12 35 11 29 -6z m210 4 c-2 -4 2 -10 8 -12 8 -4 9 -6 2 -6 -6 -1 -17 5 -23
12 -8 10 -7 14 4 14 8 0 12 -4 9 -8z m301 1 c-3 -5 -2 -10 3 -10 5 0 9 -7 9
-15 0 -20 -2 -19 -21 10 -15 23 -15 25 -1 25 9 0 13 -4 10 -10z m75 4 c0 -8
-19 -13 -24 -6 -3 5 1 9 9 9 8 0 15 -2 15 -3z m-825 -24 c10 -11 14 -20 9 -20
-5 0 -15 9 -22 20 -7 11 -11 20 -9 20 2 0 12 -9 22 -20z m65 16 c0 -3 -4 -8
-10 -11 -5 -3 -10 -1 -10 4 0 6 5 11 10 11 6 0 10 -2 10 -4z m335 -16 c-15
-16 -55 -25 -55 -11 0 9 38 28 57 28 10 0 10 -4 -2 -17z m515 10 c-12 -7 -12
-12 -2 -22 9 -9 12 -9 12 2 0 7 3 11 6 7 3 -3 3 -11 -1 -17 -5 -8 -11 -8 -21
1 -20 16 -18 39 4 39 14 0 15 -2 2 -10z m-1546 -8 c3 -5 -1 -9 -9 -9 -8 0 -12
4 -9 9 3 4 7 8 9 8 2 0 6 -4 9 -8z m81 -2 c-3 -5 -12 -10 -18 -10 -7 0 -6 4 3
10 19 12 23 12 15 0z m164 -27 c-7 -7 -15 -11 -18 -7 -3 4 0 9 7 11 10 4 10 8
0 21 -12 15 -11 16 5 3 13 -11 15 -17 6 -28z m155 -3 c6 -8 1 -7 -11 4 -13 10
-20 23 -16 29 4 7 8 6 11 -3 3 -8 10 -22 16 -30z m361 31 c3 -5 2 -12 -3 -15
-5 -3 -9 1 -9 9 0 17 3 19 12 6z m199 -7 c8 -22 8 -24 -6 -24 -6 0 -8 3 -5 7
4 3 2 12 -4 20 -7 8 -8 13 -1 13 5 0 13 -7 16 -16z m513 3 c0 -7 -9 -14 -20
-14 -10 -1 -28 -10 -38 -19 -24 -21 -25 -14 -1 13 9 11 22 18 29 16 6 -2 14 1
18 6 8 14 12 14 12 -2z m160 -6 c-4 -16 0 -18 19 -15 l24 4 -20 -20 c-22 -22
-35 -27 -24 -8 5 8 2 9 -9 5 -9 -3 -19 -1 -23 5 -4 7 -3 8 4 4 8 -4 12 0 12
12 0 18 8 32 18 32 2 0 2 -9 -1 -19z m-1463 -2 c4 6 12 11 17 11 25 0 -19 -25
-46 -27 -28 -1 -29 0 -10 13 13 10 21 11 26 3 5 -8 8 -8 13 0z m262 -16 c-10
-10 -19 5 -10 18 6 11 8 11 12 0 2 -7 1 -15 -2 -18z m314 -9 c0 -2 -6 -1 -13
2 -9 3 -13 -4 -13 -21 0 -14 1 -25 2 -25 13 0 33 14 29 20 -3 4 1 10 8 13 8 3
14 -1 14 -9 0 -7 -9 -16 -19 -20 -10 -3 -16 -9 -13 -14 3 -4 -4 -6 -15 -3 -12
3 -20 0 -20 -8 0 -7 -3 -10 -6 -7 -3 4 -1 16 6 27 9 17 8 21 -5 21 -8 0 -15 8
-14 18 0 10 3 12 6 5 2 -7 9 -13 14 -13 6 0 6 8 -1 19 -15 30 -12 33 15 15 14
-9 25 -18 25 -20z m422 -3 c-4 -10 -7 -11 -10 -3 -2 7 -8 12 -14 12 -6 0 -7
-7 -4 -16 6 -15 4 -15 -10 -3 -10 8 -12 15 -5 17 6 2 8 9 4 15 -4 6 0 8 10 4
10 -4 17 -1 17 6 0 8 3 7 9 -2 5 -8 6 -21 3 -30z m534 28 c3 -6 -4 -21 -17
-33 l-23 -21 19 23 c16 20 17 25 5 32 -9 6 -10 10 -3 10 6 0 15 -5 19 -11z
m64 1 c0 -5 -7 -7 -15 -4 -8 4 -15 8 -15 10 0 2 7 4 15 4 8 0 15 -4 15 -10z
m-1188 -7 c-10 -4 -10 -8 0 -21 11 -15 11 -15 -3 -5 -9 7 -20 9 -25 5 -4 -4
-2 1 5 11 7 9 19 17 25 16 6 0 6 -3 -2 -6z m95 -7 c0 -8 -3 -15 -6 -14 -24 2
-41 -4 -38 -14 1 -7 -5 -13 -13 -13 -25 0 -17 28 10 32 14 2 27 8 28 13 5 15
19 12 19 -4z m383 4 c0 -5 -5 -10 -11 -10 -5 0 -7 5 -4 10 3 6 8 10 11 10 2 0
4 -4 4 -10z m-1090 -4 c0 -2 -11 -6 -25 -8 -13 -3 -22 -1 -19 3 5 9 44 13 44
5z m235 -5 c3 -5 1 -12 -5 -16 -5 -3 -10 1 -10 9 0 18 6 21 15 7z m288 -12
c-8 -8 -13 -7 -18 2 -5 8 -4 10 3 5 7 -4 12 -2 12 5 0 7 3 9 7 6 4 -4 2 -12
-4 -18z m325 -4 c-3 -3 -9 2 -12 12 -6 14 -5 15 5 6 7 -7 10 -15 7 -18z m99 3
c-3 -8 -6 -5 -6 6 -1 11 2 17 5 13 3 -3 4 -12 1 -19z m629 -10 c2 2 10 2 17
-1 6 -2 0 -6 -15 -9 -22 -4 -27 -1 -31 21 -5 25 -5 25 9 6 8 -11 17 -19 20
-17z m-1441 -2 c0 -13 -3 -22 -7 -19 -5 2 -8 0 -8 -6 0 -5 5 -13 10 -16 6 -4
7 -11 4 -17 -4 -6 0 -15 7 -20 12 -8 11 -9 -1 -5 -8 2 -15 10 -15 18 0 25 -35
56 -61 53 -13 -1 -27 3 -31 8 -3 7 -1 8 5 4 7 -4 12 -2 12 3 0 16 26 13 40 -4
17 -20 27 -19 33 5 7 27 12 25 12 -4z m768 16 c2 7 7 10 11 7 14 -13 -6 -37
-26 -31 -13 3 -19 1 -15 -5 3 -5 0 -10 -8 -10 -13 0 -13 3 0 17 8 9 12 21 8
25 -5 5 -1 4 9 -3 13 -10 17 -10 21 0z m580 -22 c-8 -29 -29 -44 -36 -26 -4
10 -1 13 9 9 13 -5 20 13 15 40 -1 5 3 6 8 3 5 -3 7 -15 4 -26z m-1633 5 c11
-13 10 -14 -4 -9 -9 3 -16 10 -16 15 0 13 6 11 20 -6z m67 -7 c-3 -8 -6 -5 -6
6 -1 11 2 17 5 13 3 -3 4 -12 1 -19z m1078 14 c-2 -2 2 -17 11 -33 8 -16 11
-29 7 -29 -5 1 -15 16 -23 34 -12 25 -13 33 -3 33 7 0 11 -2 8 -5z m536 -9
c13 -16 12 -17 -3 -4 -17 13 -22 21 -14 21 2 0 10 -8 17 -17z m274 -7 c0 -15
-4 -21 -9 -16 -5 5 -6 16 -3 24 9 22 12 20 12 -8z m-1378 -6 c1 -11 -2 -20 -5
-20 -4 0 -8 9 -9 20 -1 11 2 20 5 20 4 0 8 -9 9 -20z m127 5 c-10 -8 -23 -15
-28 -15 -6 0 -1 7 10 15 10 8 23 15 28 15 6 0 1 -7 -10 -15z m50 7 c3 -5 -1
-9 -9 -9 -8 0 -12 4 -9 9 3 4 7 8 9 8 2 0 6 -4 9 -8z m110 -8 c5 -14 4 -15 -9
-4 -17 14 -19 20 -6 20 5 0 12 -7 15 -16z m353 1 c0 -8 -4 -12 -8 -9 -4 2 -10
0 -14 -6 -9 -15 -25 -12 -25 6 0 8 5 12 10 9 6 -3 10 -1 10 4 0 6 6 11 13 11
8 0 14 -7 14 -15z m-1167 -40 c-7 -9 -8 -15 0 -18 6 -3 6 -5 -1 -3 -14 2 -22
36 -8 36 4 0 6 8 3 18 -5 15 -4 15 6 -1 9 -13 9 -22 0 -32z m110 34 c0 -5 5
-7 10 -4 6 3 10 2 10 -3 0 -6 -7 -13 -16 -16 -10 -4 -13 -2 -8 6 5 8 2 9 -10
5 -10 -4 -20 -7 -23 -7 -3 0 0 -7 7 -15 11 -13 10 -14 -4 -9 -20 8 -20 13 2
35 20 20 32 24 32 8z m1207 -22 c-13 -24 -14 -24 -25 -6 -16 25 -15 28 8 22
12 -3 20 0 20 8 0 7 2 10 5 7 3 -3 -1 -17 -8 -31z m529 8 c-1 -8 -6 -18 -11
-22 -4 -4 -6 -3 -2 2 3 6 2 17 -4 25 -7 12 -9 11 -9 -4 0 -11 -3 -17 -6 -13
-4 3 -4 13 -1 21 7 19 36 10 33 -9z m-1562 6 c3 -5 -1 -11 -9 -14 -9 -4 -12
-1 -8 9 6 16 10 17 17 5z m111 -9 c-3 -3 -11 0 -18 7 -9 10 -8 11 6 5 10 -3
15 -9 12 -12z m391 3 c-3 -23 -12 -26 -13 -5 -1 11 2 20 7 20 4 0 7 -7 6 -15z
m1011 1 c0 -8 -8 -11 -21 -8 -19 5 -19 6 0 13 10 4 19 8 20 8 0 1 1 -5 1 -13z
m-1609 -23 c-2 -20 1 -27 11 -25 11 2 12 0 3 -11 -7 -8 -9 -17 -5 -21 4 -4 -1
-4 -11 0 -16 6 -17 4 -7 -14 13 -25 27 -28 34 -9 4 9 6 9 6 0 1 -7 -8 -17 -19
-23 -11 -6 -19 -7 -18 -3 1 4 -3 18 -10 31 -11 19 -10 23 3 28 20 8 8 27 -14
20 -14 -5 -13 -4 2 8 9 7 17 21 17 30 0 9 3 16 6 16 3 0 4 -12 2 -27z m422 17
c0 -5 -4 -10 -10 -10 -5 0 -10 5 -10 10 0 6 5 10 10 10 6 0 10 -4 10 -10z
m104 -6 c3 -8 2 -12 -4 -9 -6 3 -10 10 -10 16 0 14 7 11 14 -7z m279 1 c-3 -9
-8 -14 -10 -11 -3 3 -2 9 2 15 9 16 15 13 8 -4z m278 -2 c12 -16 12 -17 -2 -6
-9 7 -19 10 -22 6 -4 -3 -7 -1 -7 5 0 17 16 15 31 -5z m403 -13 c8 -17 10 -28
5 -25 -5 4 -9 1 -9 -5 0 -7 -5 -6 -14 2 -9 8 -10 15 -3 19 5 4 7 14 4 23 -11
27 1 18 17 -14z m-1314 16 c0 -2 -7 -7 -16 -10 -8 -3 -12 -2 -9 4 6 10 25 14
25 6z m80 0 c0 -3 -4 -8 -10 -11 -5 -3 -10 -1 -10 4 0 6 5 11 10 11 6 0 10 -2
10 -4z m530 -2 c0 -8 -19 -13 -24 -6 -3 5 1 9 9 9 8 0 15 -2 15 -3z m374 -2
c3 -5 -1 -9 -9 -9 -8 0 -12 4 -9 9 3 4 7 8 9 8 2 0 6 -4 9 -8z m-317 -8 c-3
-3 -12 -4 -19 -1 -8 3 -5 6 6 6 11 1 17 -2 13 -5z m568 -14 c-6 -19 3 -25 28
-21 5 1 6 -3 2 -8 -3 -6 -12 -8 -20 -6 -48 15 -46 13 -28 35 22 25 26 25 18 0z
m110 10 c3 -5 -1 -10 -10 -10 -9 0 -13 5 -10 10 3 6 8 10 10 10 2 0 7 -4 10
-10z m-1590 -9 c3 -5 1 -12 -5 -16 -5 -3 -10 1 -10 9 0 18 6 21 15 7z m1668
-16 c-3 -9 -8 -14 -10 -11 -3 3 -2 9 2 15 9 16 15 13 8 -4z m94 8 c-4 -3 -2
-12 4 -20 7 -8 8 -13 1 -13 -12 0 -23 26 -15 34 4 3 9 6 11 6 3 0 2 -3 -1 -7z
m-1842 -12 c3 -5 2 -12 -3 -15 -5 -3 -9 1 -9 9 0 17 3 19 12 6z m79 -8 c8 3
18 2 21 -3 3 -5 -7 -10 -22 -12 -17 -2 -27 -8 -25 -16 1 -8 -2 -11 -6 -8 -5 3
-7 17 -4 32 3 17 7 22 12 13 5 -6 15 -9 24 -6z m1203 -20 c-3 -10 -5 -4 -5 12
0 17 2 24 5 18 2 -7 2 -21 0 -30z m490 -9 c-24 -28 -32 -31 -23 -9 6 17 -5 20
-20 5 -7 -7 -11 -6 -11 4 0 8 4 13 8 11 4 -3 17 4 30 14 32 25 43 6 16 -25z
m43 36 c0 -5 -2 -10 -4 -10 -3 0 -8 5 -11 10 -3 6 -1 10 4 10 6 0 11 -4 11
-10z m-552 -12 c-2 -6 -10 -13 -16 -14 -7 -1 -8 0 -2 3 5 2 8 9 4 14 -3 5 0 9
6 9 7 0 10 -5 8 -12z m-1038 -12 c0 -2 -8 -10 -17 -17 -16 -13 -17 -12 -4 4
13 16 21 21 21 13z m1141 -3 c0 -5 3 -20 5 -35 2 -14 0 -29 -5 -32 -5 -4 -7 3
-3 16 3 11 1 19 -4 16 -5 -4 -9 5 -9 18 0 21 14 36 16 17z m-1280 -25 c-4 -12
-13 -23 -20 -24 -6 -1 -7 0 -1 3 5 2 10 13 10 24 0 10 4 19 10 19 5 0 6 -9 1
-22z m1535 -4 c0 -20 -11 -25 -11 -6 0 4 -3 12 -7 18 -4 6 -1 11 5 11 7 0 13
-11 13 -23z m58 18 c3 -5 -1 -9 -9 -9 -8 0 -12 4 -9 9 3 4 7 8 9 8 2 0 6 -4 9
-8z m180 -4 c-3 -4 -11 -5 -19 -1 -21 7 -19 12 4 10 11 0 18 -5 15 -9z m-1919
-8 c3 -6 -1 -7 -9 -4 -18 7 -21 14 -7 14 6 0 13 -4 16 -10z m1869 -11 c19 3
24 -1 22 -14 -1 -9 -5 -15 -9 -15 -4 0 -11 0 -17 0 -5 0 -10 7 -10 16 0 8 -5
12 -10 9 -6 -4 -8 -10 -5 -15 3 -4 -5 -6 -17 -2 l-22 5 22 8 c12 5 22 14 22
21 0 10 2 10 9 0 4 -8 11 -13 15 -13z m-1894 -9 c0 -5 -4 -10 -10 -10 -5 0
-10 5 -10 10 0 6 5 10 10 10 6 0 10 -4 10 -10z m1357 -10 c-1 -20 -8 -25 -20
-14 -3 3 0 12 6 20 16 17 16 17 14 -6z m266 5 c4 -8 3 -16 -1 -19 -4 -3 -9 4
-9 15 -2 23 3 25 10 4z m324 0 c0 -8 -4 -12 -9 -9 -5 3 -6 10 -3 15 9 13 12
11 12 -6z m-1747 1 c0 -2 -7 -7 -16 -10 -8 -3 -12 -2 -9 4 6 10 25 14 25 6z
m1177 -18 c-3 -8 -6 -5 -6 6 -1 11 2 17 5 13 3 -3 4 -12 1 -19z m365 -6 c-5
-15 -3 -15 10 -4 20 16 31 2 12 -16 -8 -7 -14 -9 -14 -5 0 4 -5 1 -10 -7 -5
-8 -10 -10 -11 -5 -5 52 -3 62 8 58 6 -3 9 -12 5 -21z m-1722 -7 c0 -2 -9 -3
-19 -2 -11 0 -18 5 -15 9 4 6 34 0 34 -7z m1295 6 c3 -5 2 -12 -3 -15 -5 -3
-9 1 -9 9 0 17 3 19 12 6z m352 -28 c1 -20 -2 -32 -5 -26 -4 5 -16 15 -27 21
-18 10 -18 11 -2 12 10 0 20 7 23 15 9 22 10 19 11 -22z m189 25 c3 -4 2 -13
-3 -22 -7 -12 -10 -11 -19 9 -9 18 -8 22 2 21 7 -1 16 -5 20 -8z m-1675 -22
c-6 -7 -8 -16 -4 -19 3 -4 1 -7 -6 -7 -8 0 -11 6 -7 16 3 9 6 20 6 25 0 6 5 7
10 4 8 -5 8 -11 1 -19z m1214 14 c-3 -5 -12 -10 -18 -10 -7 0 -6 4 3 10 19 12
23 12 15 0z m552 -7 c-4 -3 -2 -12 4 -20 7 -8 8 -13 1 -13 -12 0 -23 26 -15
34 4 3 9 6 11 6 3 0 2 -3 -1 -7z m-1555 -35 c-8 -8 -9 -4 -5 13 4 13 8 18 11
10 2 -7 -1 -18 -6 -23z m262 18 c-4 -11 1 -13 18 -10 l23 5 -23 -11 c-30 -13
-47 -4 -31 16 15 18 20 18 13 0z m286 -7 c0 -5 -4 -9 -10 -9 -5 0 -10 -5 -10
-11 0 -6 7 -8 16 -5 8 3 12 2 9 -4 -3 -6 0 -10 7 -11 9 0 10 -2 1 -5 -7 -3
-10 -13 -7 -22 2 -9 -1 -7 -7 6 -7 12 -16 22 -21 22 -4 0 -7 13 -6 29 1 19 7
27 15 24 7 -3 13 -9 13 -14z m35 11 c3 -6 -1 -7 -9 -4 -18 7 -21 14 -7 14 6 0
13 -4 16 -10z m59 1 c3 -5 -2 -15 -12 -22 -15 -12 -16 -12 -5 2 7 9 10 19 6
22 -3 4 -4 7 0 7 3 0 8 -4 11 -9z m121 -1 c3 -5 1 -10 -4 -10 -6 0 -11 5 -11
10 0 6 2 10 4 10 3 0 8 -4 11 -10z m95 0 c0 -4 -14 -7 -30 -8 -17 0 -28 3 -26
7 6 9 56 9 56 1z m81 -13 c-10 -9 -11 -8 -5 6 3 10 9 15 12 12 3 -3 0 -11 -7
-18z m119 17 c0 -8 -19 -13 -24 -6 -3 5 1 9 9 9 8 0 15 -2 15 -3z m435 -4 c-3
-5 -1 -10 6 -10 21 0 3 -11 -27 -16 l-27 -5 24 20 c27 23 33 26 24 11z m35 0
c0 -5 -2 -10 -4 -10 -3 0 -8 5 -11 10 -3 6 -1 10 4 10 6 0 11 -4 11 -10z
m-1900 -4 c0 -11 -19 -15 -25 -6 -3 5 1 10 9 10 9 0 16 -2 16 -4z m185 -6 c3
-5 1 -10 -4 -10 -6 0 -11 5 -11 10 0 6 2 10 4 10 3 0 8 -4 11 -10z m59 -6 c5
-14 4 -15 -9 -4 -17 14 -19 20 -6 20 5 0 12 -7 15 -16z m1006 1 c-10 -12 -10
-15 1 -15 9 -1 8 -4 -4 -11 -9 -6 -15 -14 -12 -19 3 -5 1 -11 -5 -15 -5 -3
-10 1 -10 9 0 9 -5 16 -11 16 -5 0 -7 -5 -3 -12 4 -7 3 -8 -4 -4 -21 13 -13
26 15 26 14 0 23 3 20 7 -7 6 10 33 20 33 3 0 0 -7 -7 -15z m120 5 c0 -5 -2
-10 -4 -10 -3 0 -8 5 -11 10 -3 6 -1 10 4 10 6 0 11 -4 11 -10z m-950 -10 c0
-5 -2 -10 -4 -10 -3 0 -8 5 -11 10 -3 6 -1 10 4 10 6 0 11 -4 11 -10z m34 2
c3 -5 -1 -9 -9 -9 -8 0 -12 4 -9 9 3 4 7 8 9 8 2 0 6 -4 9 -8z m66 -17 c0 -8
-4 -16 -9 -19 -5 -4 -7 4 -3 16 4 16 2 19 -8 13 -9 -5 -11 -4 -6 4 9 14 26 5
26 -14z m435 7 c-3 -3 -11 0 -18 7 -9 10 -8 11 6 5 10 -3 15 -9 12 -12z m128
-12 c-3 -11 -9 -18 -13 -15 -5 3 -6 14 -3 25 3 11 9 18 13 15 5 -3 6 -14 3
-25z m518 13 c13 -16 12 -17 -3 -4 -17 13 -22 21 -14 21 2 0 10 -8 17 -17z
m-1496 -2 c3 -5 2 -12 -3 -15 -5 -3 -9 1 -9 9 0 17 3 19 12 6z m125 -6 c7 -9
8 -15 2 -15 -5 0 -12 7 -16 15 -3 8 -4 15 -2 15 2 0 9 -7 16 -15z m341 -4 c-7
-5 -10 -14 -7 -20 4 -6 2 -11 -3 -11 -6 0 -11 7 -11 16 0 9 -5 12 -12 8 -7 -4
-8 -3 -4 5 4 6 11 9 16 6 5 -3 12 0 15 6 4 5 10 8 13 4 4 -3 0 -10 -7 -14z
m413 -13 c-3 -4 -11 -5 -19 -2 -11 5 -12 9 -2 19 12 13 31 -1 21 -17z m76 24
c0 -13 -12 -22 -22 -16 -10 6 -1 24 13 24 5 0 9 -4 9 -8z m70 4 c0 -3 -4 -8
-10 -11 -5 -3 -10 -1 -10 4 0 6 5 11 10 11 6 0 10 -2 10 -4z m615 -16 c9 8 15
8 20 0 3 -6 11 -7 17 -4 7 4 8 2 4 -5 -6 -9 -11 -9 -22 0 -11 9 -14 8 -14 -4
0 -10 -6 -14 -15 -11 -8 4 -14 16 -14 28 1 17 2 18 6 3 4 -14 8 -15 18 -7z
m-1755 0 c0 -5 -5 -10 -11 -10 -5 0 -7 5 -4 10 3 6 8 10 11 10 2 0 4 -4 4 -10z
m310 -5 c0 -2 -9 -3 -19 -2 -11 0 -18 5 -15 9 4 6 34 0 34 -7z m1410 9 c0 -8
-19 -13 -24 -6 -3 5 1 9 9 9 8 0 15 -2 15 -3z m-1570 -14 c0 -5 -2 -10 -4 -10
-3 0 -8 5 -11 10 -3 6 -1 10 4 10 6 0 11 -4 11 -10z m213 -10 c-3 -11 -9 -20
-13 -20 -5 0 -6 9 -3 20 3 11 9 20 13 20 5 0 6 -9 3 -20z m47 16 c0 -11 -19
-15 -25 -6 -3 5 1 10 9 10 9 0 16 -2 16 -4z m1473 -16 c-3 -12 -13 -20 -27
-19 -14 0 -16 2 -6 6 8 3 19 12 23 19 12 20 16 17 10 -6z m-1708 -9 c-3 -6
-11 -11 -16 -11 -5 0 -4 6 3 14 14 16 24 13 13 -3z m479 4 c-4 -8 -8 -15 -10
-15 -2 0 -4 7 -4 15 0 8 4 15 10 15 5 0 7 -7 4 -15z m386 -4 c7 -14 7 -22 0
-26 -6 -4 -10 -3 -9 2 4 21 -2 34 -13 27 -7 -4 -8 -3 -4 4 10 16 14 15 26 -7z
m109 1 c7 -14 6 -19 -4 -19 -7 0 -13 9 -12 19 1 10 2 18 4 18 1 0 7 -8 12 -18z
m127 -2 c0 -11 -3 -20 -7 -20 -4 0 -9 9 -12 20 -3 12 0 20 7 20 6 0 12 -9 12
-20z m331 14 c-3 -3 -12 -4 -19 -1 -8 3 -5 6 6 6 11 1 17 -2 13 -5z m305 -26
c-15 -15 -26 -4 -18 18 5 13 9 15 18 6 9 -9 9 -15 0 -24z m-1674 16 c-4 -3
-10 -6 -15 -6 -4 0 -17 -4 -28 -10 -20 -9 -20 -9 -1 6 18 15 57 23 44 10z m13
-21 c-12 -20 -14 -14 -5 12 4 9 9 14 11 11 3 -2 0 -13 -6 -23z m1117 15 c-2
-6 -10 -13 -16 -14 -7 -1 -8 0 -2 3 5 2 8 9 4 14 -3 5 0 9 6 9 7 0 10 -5 8
-12z m265 -21 c-3 -4 -12 -6 -20 -2 -13 4 -14 3 -3 -10 7 -9 10 -18 6 -22 -3
-3 2 -16 11 -27 18 -21 18 -21 -4 -2 -13 10 -20 23 -17 27 3 5 0 9 -5 9 -17 0
-13 21 7 40 17 17 37 7 25 -13z m87 23 c0 -5 -2 -10 -4 -10 -3 0 -8 5 -11 10
-3 6 -1 10 4 10 6 0 11 -4 11 -10z m-1683 -15 c0 -8 -4 -12 -9 -9 -5 3 -6 10
-3 15 9 13 12 11 12 -6z m95 8 c-6 -2 -10 -9 -7 -13 3 -5 1 -11 -4 -14 -7 -5
-8 11 -2 32 1 1 7 2 14 1 9 0 9 -2 -1 -6z m553 -3 c3 -5 1 -10 -4 -10 -6 0
-11 5 -11 10 0 6 2 10 4 10 3 0 8 -4 11 -10z m-248 -6 c-3 -3 -12 -4 -19 -1
-8 3 -5 6 6 6 11 1 17 -2 13 -5z m73 -10 c0 -8 -5 -12 -10 -9 -6 4 -8 11 -5
16 9 14 15 11 15 -7z m50 12 c0 -2 -7 -7 -16 -10 -8 -3 -12 -2 -9 4 6 10 25
14 25 6z m85 -14 c-3 -3 -11 0 -18 7 -9 10 -8 11 6 5 10 -3 15 -9 12 -12z
m455 8 c0 -5 -5 -10 -11 -10 -5 0 -7 5 -4 10 3 6 8 10 11 10 2 0 4 -4 4 -10z
m677 -25 c-15 -16 -32 -8 -18 9 6 7 7 17 3 22 -4 4 1 2 10 -5 14 -10 15 -16 5
-26z m-1468 2 c0 -9 -2 -8 -6 1 -2 6 -10 9 -15 6 -7 -4 -8 -2 -4 5 9 13 26 5
25 -12z m946 2 c-4 -5 -12 -9 -18 -8 -9 0 -8 2 1 6 6 2 9 10 6 15 -4 7 -2 8 5
4 6 -4 9 -12 6 -17z m46 -2 c-8 -8 -14 -7 -23 2 -11 10 -9 11 6 5 15 -6 17 -4
11 6 -6 9 -4 11 4 5 9 -5 10 -10 2 -18z m359 -19 l-22 -23 17 35 c10 19 20 30
22 23 3 -7 -5 -23 -17 -35z m88 15 c0 -27 -1 -26 -16 3 -8 16 -8 21 2 21 8 0
14 -11 14 -24z m120 3 c-15 -30 -16 -30 -14 -3 0 13 6 24 13 24 9 0 9 -6 1
-21z m-1653 1 c3 -4 2 -5 -2 -2 -3 3 -12 0 -18 -5 -9 -8 -14 -6 -18 5 -5 10
-1 14 13 12 11 -2 22 -6 25 -10z m365 4 c0 -6 -4 -12 -8 -15 -5 -3 -9 1 -9 9
0 8 4 15 9 15 4 0 8 -4 8 -9z m97 2 c-4 -3 0 -15 10 -25 9 -11 11 -18 5 -18
-7 0 -12 5 -12 10 0 6 -5 10 -11 10 -6 0 -9 -7 -5 -15 5 -15 -5 -21 -17 -9 -6
6 21 54 31 54 3 0 2 -3 -1 -7z m250 -8 c0 -8 -4 -12 -9 -9 -5 3 -6 10 -3 15 9
13 12 11 12 -6z m-641 -7 c4 4 3 0 -4 -9 -6 -9 -9 -20 -5 -25 4 -5 1 -3 -7 3
-18 16 -24 49 -6 34 7 -6 17 -7 22 -3z m156 -13 c3 -13 1 -22 -3 -19 -9 5 -13
44 -5 44 2 0 6 -11 8 -25z m40 18 c-6 -2 -9 -10 -6 -15 4 -7 2 -8 -5 -4 -13 9
-5 26 12 25 9 0 8 -2 -1 -6z m-459 -24 c-8 -8 -13 -7 -18 2 -5 8 -4 10 3 5 7
-4 12 -2 12 5 0 7 3 9 7 6 4 -4 2 -12 -4 -18z m38 -2 c-10 -9 -11 -8 -5 6 3
10 9 15 12 12 3 -3 0 -11 -7 -18z m323 8 c-4 -8 -2 -15 4 -15 6 0 13 6 15 13
4 9 6 9 6 0 1 -17 -19 -27 -31 -15 -6 6 -7 15 -4 21 10 16 16 13 10 -4z m601
5 c3 -6 -1 -7 -9 -4 -18 7 -21 14 -7 14 6 0 13 -4 16 -10z m910 0 c-3 -5 -1
-10 4 -10 6 0 11 5 11 10 0 6 5 10 10 10 6 0 10 -7 10 -15 0 -11 -9 -15 -29
-13 -19 1 -27 7 -24 15 3 7 9 13 15 13 5 0 6 -4 3 -10z m-1345 -32 c0 -6 -3
-8 -7 -5 -3 4 -11 3 -17 -2 -7 -6 -11 -2 -11 14 0 19 3 21 18 14 9 -5 17 -15
17 -21z m395 13 c-3 -6 -11 -8 -17 -5 -6 4 -5 9 3 15 16 10 23 4 14 -10z m605
9 c0 -5 6 -8 13 -6 6 1 9 1 4 -1 -4 -3 -5 -9 -1 -14 8 -14 -6 -11 -22 5 -16
17 -18 26 -4 26 6 0 10 -4 10 -10z m127 -12 c-3 -8 -6 -5 -6 6 -1 11 2 17 5
13 3 -3 4 -12 1 -19z m-1432 3 c3 -5 2 -12 -3 -15 -5 -3 -9 1 -9 9 0 17 3 19
12 6z m482 -16 c0 -8 -4 -12 -9 -9 -4 3 -8 9 -8 15 0 5 4 9 8 9 5 0 9 -7 9
-15z m798 5 c3 -5 1 -10 -4 -10 -6 0 -11 5 -11 10 0 6 2 10 4 10 3 0 8 -4 11
-10z m75 0 c0 -5 -5 -10 -11 -10 -5 0 -7 5 -4 10 3 6 8 10 11 10 2 0 4 -4 4
-10z m-1180 -16 c0 -8 -5 -12 -10 -9 -6 4 -8 11 -5 16 9 14 15 11 15 -7z m183
9 c-7 -3 -13 -11 -13 -19 0 -8 -4 -14 -8 -14 -4 0 -8 8 -8 18 0 11 8 18 21 19
11 1 14 -1 8 -4z m411 -1 c2 -4 -5 -9 -17 -9 -17 -2 -19 0 -7 7 18 12 18 12
24 2z m-954 -12 c0 -5 -7 -7 -15 -4 -8 4 -15 8 -15 10 0 2 7 4 15 4 8 0 15 -4
15 -10z m320 -10 c0 -11 -4 -20 -9 -20 -5 0 -7 9 -4 20 3 11 7 20 9 20 2 0 4
-9 4 -20z m565 10 c3 -6 -1 -7 -9 -4 -18 7 -21 14 -7 14 6 0 13 -4 16 -10z
m-754 -23 c-10 -9 -11 -8 -5 6 3 10 9 15 12 12 3 -3 0 -11 -7 -18z m482 8 c-3
-9 -8 -14 -10 -11 -3 3 -2 9 2 15 9 16 15 13 8 -4z m842 6 c3 -5 2 -12 -3 -15
-5 -3 -9 1 -9 9 0 17 3 19 12 6z m114 6 c-2 -1 -12 -9 -22 -16 -15 -12 -17
-12 -11 3 3 9 13 16 22 16 8 0 13 -1 11 -3z m156 -6 c3 -6 -4 -9 -15 -8 -11 1
-20 5 -20 9 0 11 28 10 35 -1z m148 -5 c4 -10 1 -13 -8 -9 -8 3 -12 9 -9 14 7
12 11 11 17 -5z m-288 -13 c-12 -29 -12 -57 -1 -73 10 -13 9 -13 -6 -1 -10 7
-15 17 -12 22 3 5 1 9 -5 9 -13 0 -8 23 9 43 19 21 24 21 15 0z m33 -8 c-3 -3
-9 2 -12 12 -6 14 -5 15 5 6 7 -7 10 -15 7 -18z m-1621 0 c0 -8 -4 -15 -9 -15
-10 0 -11 14 -1 23 9 10 10 9 10 -8z m89 0 c-1 -8 -5 -17 -8 -21 -5 -4 -4 16
1 34 3 9 9 -1 7 -13z m128 0 c-4 -8 -11 -15 -16 -15 -6 0 -5 6 2 15 7 8 14 15
16 15 2 0 1 -7 -2 -15z m149 2 c3 -8 -1 -14 -8 -14 -7 0 -11 6 -8 14 3 7 6 13
8 13 2 0 5 -6 8 -13z m282 3 c3 -5 1 -10 -4 -10 -6 0 -11 5 -11 10 0 6 2 10 4
10 3 0 8 -4 11 -10z m845 -16 c0 -8 -5 -12 -10 -9 -6 3 -17 -1 -26 -9 -8 -9
-20 -16 -27 -16 -6 0 3 11 21 23 17 13 28 28 24 32 -4 5 -1 5 6 1 6 -4 12 -14
12 -22z m294 11 c-4 -8 -11 -12 -16 -9 -6 4 -5 10 3 15 19 12 19 11 13 -6z
m-1384 1 c0 -3 -4 -8 -10 -11 -5 -3 -10 -1 -10 4 0 6 5 11 10 11 6 0 10 -2 10
-4z m447 -2 c-3 -3 -12 -4 -19 -1 -8 3 -5 6 6 6 11 1 17 -2 13 -5z m580 -9 c0
-8 -4 -12 -9 -9 -5 3 -6 10 -3 15 9 13 12 11 12 -6z m-1461 -4 c-9 -14 -45
-20 -53 -9 -3 6 -2 9 3 6 5 -3 18 -2 29 3 27 10 27 10 21 0z m307 -14 c-5 -8
-8 -7 -11 1 -2 7 -9 9 -14 6 -7 -4 -8 -2 -4 4 4 6 13 9 21 6 8 -4 12 -11 8
-17z m294 8 c0 -8 -4 -12 -9 -9 -5 3 -6 10 -3 15 9 13 12 11 12 -6z m1150 -2
c15 -13 18 -27 4 -19 -5 4 -11 1 -13 -5 -2 -6 -9 0 -16 15 -12 28 0 33 25 9z
m111 -7 c-15 -30 -16 -30 -14 -3 0 13 6 24 13 24 9 0 9 -6 1 -21z m-1651 -1
c5 -4 3 -5 -4 -2 -6 4 -21 -5 -33 -20 -16 -22 -19 -23 -10 -5 6 12 9 26 6 31
-7 10 31 7 41 -4z m236 8 c-7 -2 -13 -12 -13 -20 0 -14 2 -14 18 0 15 14 19
14 19 3 0 -8 -5 -14 -11 -13 -6 1 -10 -9 -8 -22 1 -17 -2 -22 -13 -18 -8 4
-17 2 -20 -4 -4 -5 -11 -7 -16 -3 -6 4 -6 11 2 20 6 7 16 11 21 8 6 -4 8 2 3
15 -7 24 1 41 18 40 9 0 9 -2 0 -6z m122 -2 c3 -5 2 -12 -3 -15 -5 -3 -9 1 -9
9 0 17 3 19 12 6z m103 2 c-3 -12 23 -55 29 -49 7 6 32 -24 33 -38 0 -6 -6 -2
-13 8 -12 16 -16 17 -35 5 -12 -8 -22 -22 -22 -31 0 -10 -4 -18 -9 -18 -16 0
1 40 21 51 18 10 18 11 -1 38 -11 16 -18 31 -14 35 9 8 13 8 11 -1z m249 -8
c0 -8 -4 -12 -9 -9 -5 3 -6 10 -3 15 9 13 12 11 12 -6z m753 9 c0 -3 -7 -12
-15 -20 -16 -17 -18 -14 -9 10 6 15 24 23 24 10z m-1404 -39 c1 -8 -2 -15 -7
-15 -5 0 -9 3 -10 8 0 4 -2 15 -4 26 -3 14 -1 16 8 7 6 -6 12 -18 13 -26z
m1567 -27 c-2 -5 -10 -8 -16 -8 -9 0 -9 2 0 8 9 6 7 12 -7 25 -11 9 -20 22
-20 27 0 6 11 -1 24 -17 13 -15 22 -31 19 -35z m-858 42 c3 -6 -1 -7 -9 -4
-18 7 -21 14 -7 14 6 0 13 -4 16 -10z m535 6 c0 -2 -8 -10 -17 -17 -16 -13
-17 -12 -4 4 13 16 21 21 21 13z m30 -5 c0 -6 -4 -13 -10 -16 -5 -3 -10 1 -10
9 0 9 5 16 10 16 6 0 10 -4 10 -9z m350 5 c0 -2 -7 -9 -15 -16 -13 -11 -14
-10 -9 4 5 14 24 23 24 12z m30 -11 c0 -8 -7 -15 -15 -15 -9 0 -12 6 -9 15 4
8 10 15 15 15 5 0 9 -7 9 -15z m-1945 -5 c3 -6 -1 -7 -9 -4 -18 7 -21 14 -7
14 6 0 13 -4 16 -10z m85 5 c0 -2 -10 -9 -22 -15 -22 -11 -22 -10 -4 4 21 17
26 19 26 11z m314 -11 c3 -8 2 -12 -4 -9 -6 3 -10 10 -10 16 0 14 7 11 14 -7z
m281 -12 c-8 -8 -25 10 -19 20 4 6 9 5 15 -3 4 -7 6 -15 4 -17z m285 18 c0 -5
-8 -10 -17 -10 -15 0 -16 2 -3 10 19 12 20 12 20 0z m-705 -9 c3 -5 2 -12 -3
-15 -5 -3 -9 1 -9 9 0 17 3 19 12 6z m315 -6 c0 -1 -9 -5 -19 -8 -13 -3 -18
-1 -14 9 4 10 33 10 33 -1z m1007 2 c0 -8 -6 -14 -14 -14 -9 0 -10 4 -2 14 6
7 12 13 14 13 1 0 2 -6 2 -13z m-1222 -18 c-4 -5 -14 -8 -23 -8 -15 1 -15 2 1
6 9 2 14 9 11 15 -4 7 -2 8 5 4 6 -4 9 -12 6 -17z m252 -4 c-14 -30 -23 -32
-23 -6 0 11 4 18 7 15 4 -2 10 0 14 6 12 19 13 10 2 -15z m492 22 c-2 -1 -14
-10 -26 -20 -16 -14 -23 -15 -29 -6 -4 7 -3 10 3 6 6 -4 16 0 23 8 7 8 17 15
23 15 6 0 8 -1 6 -3z m106 -7 c3 -6 -1 -7 -9 -4 -18 7 -21 14 -7 14 6 0 13 -4
16 -10z m330 0 c3 -5 1 -10 -4 -10 -6 0 -11 5 -11 10 0 6 2 10 4 10 3 0 8 -4
11 -10z m-1517 -18 c-10 -2 -18 -8 -18 -13 0 -5 -5 -9 -11 -9 -5 0 -7 5 -4 10
3 6 2 10 -4 10 -5 0 -12 -6 -14 -12 -3 -8 -6 -5 -6 6 -1 14 4 17 19 13 11 -3
23 -1 26 4 3 5 11 6 17 2 8 -5 7 -9 -5 -11z m206 9 c4 -5 -3 -7 -14 -4 -23 6
-26 13 -6 13 8 0 17 -4 20 -9z m779 0 c4 -1 7 -6 7 -12 0 -8 -4 -8 -14 0 -11
9 -15 9 -18 -1 -3 -8 -6 -7 -10 4 -5 11 -2 15 10 13 9 -2 20 -4 25 -4z m908
-14 c-10 -9 -11 -8 -5 6 3 10 9 15 12 12 3 -3 0 -11 -7 -18z m-1841 3 c0 -5
-2 -10 -4 -10 -3 0 -8 5 -11 10 -3 6 -1 10 4 10 6 0 11 -4 11 -10z m110 0 c0
-5 -2 -10 -4 -10 -3 0 -8 5 -11 10 -3 6 -1 10 4 10 6 0 11 -4 11 -10z m84 -4
c-10 -8 -21 -12 -24 -10 -5 6 21 24 34 24 6 0 1 -6 -10 -14z m128 -10 c3 -17
1 -23 -8 -19 -10 3 -12 18 -5 41 3 9 9 -2 13 -22z m273 14 c-3 -5 -11 -10 -16
-10 -6 0 -7 5 -4 10 3 6 11 10 16 10 6 0 7 -4 4 -10z m623 1 c8 -5 0 -7 -23
-6 -20 1 -39 5 -42 9 -9 9 50 7 65 -3z m363 -39 c-6 -11 -8 -21 -6 -24 3 -3
-1 -5 -9 -5 -17 0 -15 26 3 37 9 5 10 10 2 14 -6 4 -15 4 -21 1 -5 -3 -10 -2
-10 4 0 16 24 19 38 5 9 -10 10 -19 3 -32z m86 35 c0 -8 -6 -14 -14 -14 -9 0
-10 4 -2 14 6 7 12 13 14 13 1 0 2 -6 2 -13z m-1527 -12 c0 -8 -4 -15 -10 -15
-5 0 -7 7 -4 15 4 8 8 15 10 15 2 0 4 -7 4 -15z m957 -2 c0 -9 -4 -10 -14 -2
-7 6 -13 12 -13 14 0 1 6 2 13 2 8 0 14 -6 14 -14z m54 0 c13 -16 12 -17 -3
-4 -10 7 -18 15 -18 17 0 8 8 3 21 -13z m564 7 c-3 -5 -10 -10 -16 -10 -5 0
-9 5 -9 10 0 6 7 10 16 10 8 0 12 -4 9 -10z m-1630 -10 c3 -6 -1 -7 -9 -4 -18
7 -21 14 -7 14 6 0 13 -4 16 -10z m148 -15 c4 3 5 2 3 -1 -2 -3 -6 -4 -9 -2
-2 2 -10 -2 -18 -8 -11 -9 -17 -9 -28 3 -11 12 -10 14 5 11 12 -2 18 2 16 12
-2 12 1 11 11 -2 8 -10 17 -16 20 -13z m-277 -24 c-10 -11 -15 -24 -11 -30 4
-7 0 -8 -10 -5 -9 4 -13 9 -11 12 3 3 0 12 -7 20 -9 13 -9 14 1 8 8 -5 12 -1
13 11 0 10 3 13 6 6 8 -20 26 -15 18 5 -5 13 -4 14 6 5 10 -10 9 -17 -5 -32z
m39 29 c-3 -5 -2 -10 3 -10 5 0 9 -7 9 -15 0 -14 -2 -14 -15 -1 -13 12 -10 36
4 36 3 0 2 -4 -1 -10z m560 0 c-4 -6 -1 -19 6 -28 12 -16 12 -16 -5 0 -16 14
-15 38 0 38 3 0 2 -5 -1 -10z m95 6 c0 -2 -7 -7 -16 -10 -8 -3 -12 -2 -9 4 6
10 25 14 25 6z m245 -5 c-3 -5 7 -19 21 -30 15 -12 22 -21 17 -21 -14 0 -54
45 -46 53 9 10 15 9 8 -2z m50 -1 c3 -5 1 -10 -4 -10 -6 0 -11 5 -11 10 0 6 2
10 4 10 3 0 8 -4 11 -10z m68 -10 c10 -12 9 -12 -4 -2 -10 8 -19 8 -26 1 -6
-6 -10 -5 -10 5 0 17 23 15 40 -4z m218 -4 c-6 -7 -8 -16 -4 -19 3 -4 4 -7 1
-7 -3 0 -11 7 -18 16 -11 12 -11 15 1 12 8 -2 13 3 11 10 -1 8 2 11 8 7 8 -5
8 -11 1 -19z m250 1 c-10 -9 -11 -8 -5 6 3 10 9 15 12 12 3 -3 0 -11 -7 -18z
m315 11 c4 -7 3 -8 -4 -4 -7 4 -12 2 -12 -5 0 -7 -3 -10 -6 -6 -6 5 3 27 11
27 2 0 7 -5 11 -12z m-1396 -2 c0 -2 -6 -9 -13 -15 -10 -8 -14 -7 -14 4 0 8 6
15 14 15 7 0 13 -2 13 -4z m280 0 c0 -2 -7 -7 -16 -10 -8 -3 -12 -2 -9 4 6 10
25 14 25 6z m503 -26 c-3 -11 -9 -17 -14 -15 -10 7 -1 35 11 35 5 0 6 -9 3
-20z m82 0 c-3 -4 0 -11 5 -13 6 -3 5 -4 -1 -3 -7 1 -13 10 -15 19 -1 9 2 15
7 11 5 -3 7 -9 4 -14z m445 8 c0 -4 -4 -8 -9 -8 -6 0 -12 4 -15 8 -3 5 1 9 9
9 8 0 15 -4 15 -9z m122 -10 c-5 -20 -15 -17 -18 6 -1 7 4 13 11 13 7 0 10 -8
7 -19z m-1657 -1 c3 -4 2 -5 -2 -2 -3 3 -15 -3 -25 -12 -18 -16 -18 -16 -12 0
5 13 2 16 -12 11 -16 -5 -16 -4 -4 5 16 11 46 10 55 -2z m228 -2 c-3 -9 -8
-14 -10 -11 -3 3 -2 9 2 15 9 16 15 13 8 -4z m132 6 c3 -5 2 -12 -3 -15 -5 -3
-9 1 -9 9 0 17 3 19 12 6z m101 1 c-7 -12 23 -54 34 -47 4 3 11 -2 14 -11 3
-8 10 -12 16 -9 6 4 7 -1 3 -11 -6 -16 -7 -16 -19 0 -10 15 -15 15 -33 4 -12
-7 -21 -21 -21 -30 0 -10 -4 -18 -10 -18 -5 0 -7 7 -4 15 4 9 -1 18 -11 21
-13 5 -14 9 -3 15 7 5 20 6 30 3 27 -8 29 11 3 38 -17 18 -21 28 -12 31 18 8
19 8 13 -1z m444 -7 c7 4 6 -1 -2 -14 -12 -20 -13 -20 -20 -1 -4 11 -10 20
-14 20 -3 0 -3 -8 1 -17 5 -14 3 -15 -6 -6 -16 16 -2 38 16 23 8 -7 19 -9 25
-5z m-971 -28 c0 -9 -2 -9 -6 1 -2 6 -11 12 -19 12 -8 0 -14 5 -14 10 0 7 6 7
20 0 11 -6 20 -16 19 -23z m897 18 c-1 -8 -5 -17 -8 -21 -5 -4 -4 16 1 34 3 9
9 -1 7 -13z m619 -5 c17 -18 17 -20 2 -14 -9 3 -17 10 -17 16 0 5 -5 6 -12 2
-7 -4 -8 -3 -4 4 9 16 10 15 31 -8z m-1605 -5 c5 3 10 4 10 1 0 -3 -10 -11
-22 -17 -13 -6 -20 -8 -16 -4 4 5 2 15 -5 24 -10 14 -10 14 5 3 9 -8 22 -11
28 -7z m177 8 c-4 -3 -2 -12 4 -19 7 -8 7 -14 -1 -19 -6 -4 -9 -1 -8 6 2 7 -2
13 -9 14 -6 0 -15 4 -20 9 -4 5 -3 6 4 2 6 -3 14 -2 18 4 3 5 9 10 12 10 4 0
3 -3 0 -7z m138 -11 c-3 -3 -11 0 -18 7 -9 10 -8 11 6 5 10 -3 15 -9 12 -12z
m792 5 c0 -8 -6 -14 -14 -14 -9 0 -10 4 -2 14 6 7 12 13 14 13 1 0 2 -6 2 -13z
m383 4 c0 -6 -4 -13 -10 -16 -5 -3 -10 1 -10 9 0 9 5 16 10 16 6 0 10 -4 10
-9z m248 -5 c-7 -8 -15 -12 -17 -11 -5 6 10 25 20 25 5 0 4 -6 -3 -14z m109
-12 c-9 -9 -28 6 -21 18 4 6 10 6 17 -1 6 -6 8 -13 4 -17z m-1630 -1 c0 -7 -4
-13 -8 -13 -4 0 -9 6 -12 13 -3 8 0 14 7 14 7 0 13 -6 13 -14z m267 2 c16 -12
17 -15 4 -15 -9 0 -18 -3 -21 -7 -2 -5 -2 -2 0 6 2 8 -2 18 -9 23 -7 4 -8 8
-3 8 6 -1 19 -7 29 -15z m116 -1 c0 -8 -5 -12 -10 -9 -6 4 -8 11 -5 16 9 14
15 11 15 -7z m623 4 c-10 -17 -11 -32 -1 -38 4 -3 -2 -11 -12 -18 -12 -7 -20
-8 -20 -2 0 5 4 10 9 10 5 0 7 14 6 30 -2 21 2 30 12 30 9 0 11 -5 6 -12z
m345 -33 c0 -14 -5 -28 -11 -32 -6 -3 -7 -1 -3 5 6 11 -5 16 -25 14 -4 -1 -4
9 -1 21 3 12 7 16 10 9 2 -6 8 -12 13 -12 5 0 4 10 -2 23 -11 19 -10 20 3 9 9
-7 16 -24 16 -37z m-1171 -2 c-11 -10 -26 8 -20 23 5 15 7 14 15 -1 6 -9 7
-19 5 -22z m127 25 c-5 -7 -2 -9 9 -5 11 4 14 2 10 -9 -6 -16 -19 -18 -28 -4
-6 10 1 30 11 30 3 0 2 -5 -2 -12z m752 -15 c-2 -2 -11 0 -20 3 -14 5 -15 9
-5 15 12 7 34 -10 25 -18z m401 21 c-3 -3 -12 -4 -19 -1 -8 3 -5 6 6 6 11 1
17 -2 13 -5z m15 -26 c-8 -8 -9 -4 -5 13 4 13 8 18 11 10 2 -7 -1 -18 -6 -23z
m-1326 -3 c0 -18 -3 -22 -12 -14 -7 6 -10 17 -7 25 8 22 19 16 19 -11z m1138
17 c3 -5 -1 -9 -9 -9 -8 0 -12 4 -9 9 3 4 7 8 9 8 2 0 6 -4 9 -8z m-1549 -12
c3 -5 1 -10 -4 -10 -6 0 -11 5 -11 10 0 6 2 10 4 10 3 0 8 -4 11 -10z m1868
-18 c-3 -12 -9 -22 -14 -22 -5 0 -3 11 3 25 13 30 20 28 11 -3z m-1823 8 c0
-5 -5 -10 -11 -10 -5 0 -7 5 -4 10 3 6 8 10 11 10 2 0 4 -4 4 -10z m190 -5
c-7 -9 -15 -13 -19 -10 -3 3 1 10 9 15 21 14 24 12 10 -5z m97 9 c-3 -3 -12
-4 -19 -1 -8 3 -5 6 6 6 11 1 17 -2 13 -5z m37 -26 c-3 -4 -11 -8 -17 -8 -7 0
-6 4 3 10 11 7 11 10 2 10 -7 0 -10 5 -6 11 4 8 9 7 15 -2 4 -7 5 -17 3 -21z
m863 26 c-3 -3 -12 -4 -19 -1 -8 3 -5 6 6 6 11 1 17 -2 13 -5z m-477 -14 c0
-5 -5 -10 -11 -10 -5 0 -7 5 -4 10 3 6 8 10 11 10 2 0 4 -4 4 -10z m-479 -14
c0 18 1 18 9 -1 5 -11 9 -14 9 -7 1 6 5 12 11 12 5 0 7 -7 4 -15 -4 -9 -15
-13 -28 -11 -12 2 -30 -2 -41 -10 -13 -10 -22 -11 -32 -3 -10 9 -13 8 -13 -4
0 -9 -4 -19 -10 -22 -6 -3 -7 1 -4 10 5 11 2 14 -10 9 -9 -3 -16 -14 -17 -23
0 -10 -2 -11 -6 -3 -2 6 -11 12 -19 12 -16 0 -19 26 -4 35 6 3 7 -1 4 -9 -4
-11 0 -16 11 -16 10 0 13 5 9 12 -4 7 -3 8 4 4 6 -4 20 -2 31 4 13 7 22 7 26
0 4 -6 11 -7 17 -4 6 4 5 10 -3 16 -11 6 -9 8 6 6 13 -2 19 2 17 12 -1 10 2 9
13 -4 15 -20 15 -20 16 0z m1048 -6 c-20 -16 -21 -19 -7 -20 21 0 32 -16 17
-26 -8 -4 -9 -3 -5 4 5 8 -3 12 -23 12 -18 0 -31 -5 -32 -12 0 -10 -2 -10 -6
0 -2 6 -9 10 -14 6 -5 -3 -9 0 -9 6 0 7 7 10 15 6 8 -3 27 6 42 19 16 13 32
25 37 25 4 0 -2 -9 -15 -20z m307 -7 c-2 -16 -4 -31 -5 -35 0 -4 -7 -5 -15 -2
-12 5 -12 10 2 35 10 16 18 29 19 29 1 0 0 -12 -1 -27z m151 5 c-3 -8 -6 -5
-6 6 -1 11 2 17 5 13 3 -3 4 -12 1 -19z m-1193 -23 c-9 -22 -10 -35 -4 -35 6
0 8 -5 4 -11 -4 -7 0 -9 14 -5 12 4 23 2 28 -5 5 -8 3 -9 -6 -4 -7 4 -16 2
-20 -6 -7 -10 -11 -10 -24 0 -9 7 -25 11 -37 8 -15 -4 -19 -2 -15 8 3 8 0 16
-7 19 -9 3 -9 5 0 5 6 1 15 -3 18 -9 3 -5 13 -10 21 -10 8 0 12 4 9 10 -5 9
20 70 30 70 2 0 -3 -16 -11 -35z m106 31 c0 -2 -7 -7 -16 -10 -8 -3 -12 -2 -9
4 6 10 25 14 25 6z m115 -14 c-3 -3 -11 0 -18 7 -9 10 -8 11 6 5 10 -3 15 -9
12 -12z m771 4 c18 -19 1 -31 -23 -17 -11 6 -13 11 -5 11 7 0 10 5 7 10 -9 15
4 12 21 -4z m-1526 -21 c5 3 12 1 15 -5 4 -6 1 -9 -6 -8 -6 2 -14 -3 -17 -11
-3 -10 1 -12 14 -8 17 6 17 5 2 -5 -15 -11 -15 -14 4 -41 l21 -29 -21 13 c-12
7 -19 15 -17 18 3 2 0 10 -6 18 -6 7 -8 13 -3 13 5 0 2 5 -6 10 -12 8 -13 11
-1 19 9 6 10 11 2 15 -6 4 -11 13 -11 19 0 7 5 4 11 -6 6 -9 14 -15 19 -12z
m277 5 c-3 -11 0 -20 6 -20 6 0 2 -6 -8 -14 -29 -21 -36 -10 -17 24 20 35 26
38 19 10z m70 13 c-4 -3 -1 -13 6 -22 10 -14 10 -14 -4 -4 -9 7 -20 9 -25 5
-4 -4 -2 1 5 11 7 9 16 17 19 17 3 0 2 -3 -1 -7z m313 -6 c-14 -7 -26 -21 -28
-31 -3 -12 0 -16 7 -11 6 3 11 3 10 -2 -3 -20 2 -27 11 -13 8 13 10 13 10 -2
0 -9 -6 -19 -12 -22 -7 -4 -4 -5 7 -3 17 3 21 -1 21 -29 0 -19 -6 -36 -14 -39
-7 -2 -10 0 -7 5 3 5 8 19 10 29 4 23 -33 37 -42 15 -3 -8 -12 -14 -20 -14 -9
0 -13 6 -10 14 4 11 1 13 -11 10 -14 -5 -15 -4 -2 5 8 6 23 8 33 5 24 -7 22
17 -3 44 -15 16 -17 22 -7 22 8 0 20 7 27 15 7 8 20 15 29 15 10 0 7 -5 -9
-13z m655 3 c3 -6 -1 -7 -9 -4 -18 7 -21 14 -7 14 6 0 13 -4 16 -10z m382 -12
c-3 -8 -6 -5 -6 6 -1 11 2 17 5 13 3 -3 4 -12 1 -19z m-1291 -10 c4 -7 3 -8
-4 -4 -7 4 -12 2 -12 -5 0 -7 -3 -10 -6 -6 -6 5 3 27 11 27 2 0 7 -5 11 -12z
m184 -8 c0 -4 -7 -7 -15 -6 -23 3 -26 12 -5 13 11 1 20 -2 20 -7z m747 -4 c0
-8 -6 -12 -15 -9 -11 5 -11 7 0 14 7 5 13 9 14 9 0 0 1 -6 1 -14z m-1140 -64
c-5 -7 -12 -10 -16 -7 -3 3 1 10 9 15 11 7 12 10 2 10 -7 0 -11 4 -7 9 3 5 1
12 -5 16 -6 4 -7 11 -4 17 4 6 12 -2 19 -18 8 -20 9 -33 2 -42z m128 50 c-3
-3 -11 0 -18 7 -9 10 -8 11 6 5 10 -3 15 -9 12 -12z m1417 -9 c-3 -16 -7 -22
-10 -15 -4 13 4 42 11 42 2 0 2 -12 -1 -27z m-1296 2 c-3 -24 -12 -27 -27 -8
-8 9 -9 14 -2 10 6 -4 14 -3 18 3 9 14 14 12 11 -5z m164 -1 c0 -8 -5 -12 -10
-9 -6 4 -8 11 -5 16 9 14 15 11 15 -7z m94 0 c3 -8 2 -12 -4 -9 -6 3 -10 10
-10 16 0 14 7 11 14 -7z m998 -26 c-6 -6 -7 0 -4 19 5 21 7 23 10 9 2 -10 0
-22 -6 -28z m-1812 11 c5 10 9 9 13 -1 3 -9 -1 -15 -11 -15 -20 0 -33 17 -24
32 4 5 8 2 10 -9 3 -13 6 -15 12 -7z m180 17 c0 -2 -7 -6 -15 -10 -8 -3 -15
-1 -15 4 0 6 7 10 15 10 8 0 15 -2 15 -4z m250 -36 c22 0 27 -15 8 -26 -6 -4
-8 -3 -4 4 3 6 -6 13 -23 17 -23 5 -28 10 -23 27 l5 22 8 -22 c5 -13 17 -22
29 -22z m84 8 c-9 -14 -23 2 -17 18 4 12 8 13 14 3 4 -7 5 -17 3 -21z m869 20
c-2 -5 -10 -8 -18 -8 -8 0 -16 3 -18 8 -3 4 5 7 18 7 13 0 21 -3 18 -7z m328
-5 c13 -16 12 -17 -3 -4 -16 12 -18 11 -18 -12 0 -14 -5 -29 -10 -32 -6 -4 -9
-1 -8 7 2 7 -4 13 -13 12 -9 -1 -16 4 -16 11 0 7 8 12 18 10 10 -2 18 -1 18 3
-4 27 13 29 32 5z m-1225 -18 c0 -18 -3 -22 -12 -14 -7 6 -10 17 -7 25 8 22
19 16 19 -11z m487 11 c7 -17 -20 -30 -29 -14 -4 7 -3 8 4 4 7 -4 12 -1 12 8
0 20 6 20 13 2z m464 8 c-3 -3 -12 -4 -19 -1 -8 3 -5 6 6 6 11 1 17 -2 13 -5z
m-1362 -14 c3 -5 -1 -10 -10 -10 -9 0 -13 5 -10 10 3 6 8 10 10 10 2 0 7 -4
10 -10z m945 6 c0 -2 -7 -7 -16 -10 -8 -3 -12 -2 -9 4 6 10 25 14 25 6z m399
-30 c-3 -3 -11 5 -18 17 -13 21 -12 21 5 5 10 -10 16 -20 13 -22z m522 7 c-12
-20 -14 -14 -5 12 4 9 9 14 11 11 3 -2 0 -13 -6 -23z m-1879 -32 c-5 -14 -3
-14 11 -2 15 12 17 11 17 -3 0 -9 -5 -16 -11 -16 -5 0 -7 -6 -3 -12 5 -8 2 -8
-10 1 -16 13 -16 12 -5 -12 7 -15 18 -27 25 -27 7 0 16 -4 19 -10 3 -5 0 -7
-7 -5 -10 4 -14 -3 -14 -20 0 -19 4 -24 17 -20 10 3 20 1 24 -4 4 -7 -1 -8
-11 -4 -11 4 -15 3 -11 -4 5 -7 0 -9 -13 -6 -11 3 -20 0 -20 -6 0 -6 6 -10 13
-8 6 1 12 -6 12 -15 0 -10 9 -24 20 -33 12 -9 14 -13 5 -10 -12 4 -16 -1 -16
-20 0 -19 4 -24 17 -20 10 3 20 1 24 -4 4 -7 -1 -8 -11 -4 -11 4 -15 3 -11 -4
5 -7 0 -9 -13 -6 -11 3 -20 0 -20 -6 0 -6 6 -10 13 -8 6 1 12 -6 12 -15 0 -10
9 -24 20 -33 12 -9 14 -13 5 -10 -12 4 -16 -1 -16 -20 0 -19 4 -24 17 -20 10
3 20 1 24 -4 4 -7 -1 -8 -11 -4 -11 4 -15 3 -11 -4 5 -7 0 -9 -13 -6 -11 3
-20 0 -20 -6 0 -6 5 -10 11 -9 6 2 13 -3 14 -10 2 -7 1 -8 -1 -3 -3 5 -14 6
-26 4 -11 -4 -24 0 -29 8 -12 19 -11 39 2 39 5 0 8 -4 5 -8 -2 -4 -1 -13 3
-20 5 -9 11 -5 19 13 11 24 10 25 -21 26 -17 0 -25 3 -17 6 8 3 18 11 22 17 5
8 8 7 8 -1 0 -7 5 -13 10 -13 7 0 7 6 0 19 -5 11 -7 28 -3 38 6 15 4 16 -9 6
-8 -7 -18 -10 -22 -6 -4 4 -5 -5 -2 -20 3 -15 1 -25 -4 -22 -4 3 -10 20 -12
39 -3 25 -1 32 7 26 8 -7 15 -2 23 15 10 21 9 25 -3 25 -8 0 -15 8 -14 18 0
10 3 12 6 5 2 -7 9 -13 14 -13 6 0 6 8 -1 19 -5 11 -7 28 -3 38 6 16 5 16 -10
4 -15 -12 -17 -11 -17 3 0 10 5 26 10 37 8 15 7 19 -5 19 -8 0 -15 8 -14 18 0
10 3 12 6 5 2 -7 9 -13 14 -13 5 0 3 11 -3 25 -6 14 -15 25 -20 25 -4 0 -8 8
-9 18 0 10 -3 12 -6 5 -7 -18 -20 -16 -20 2 0 8 4 12 8 9 4 -2 15 4 25 13 16
17 16 18 1 21 -9 2 -17 10 -17 18 0 11 4 11 19 -3 11 -9 17 -23 13 -32z m161
34 c-3 -9 -8 -14 -10 -11 -3 3 -2 9 2 15 9 16 15 13 8 -4z m116 3 c-4 -30 2
-43 11 -23 8 18 9 18 9 2 1 -10 6 -15 11 -12 6 4 7 11 4 17 -4 7 -2 8 4 4 22
-13 1 -35 -30 -32 -30 4 -30 3 -25 -35 3 -22 1 -39 -5 -39 -5 0 -7 4 -3 9 3 5
1 12 -4 16 -6 3 -7 13 -4 23 3 9 3 14 -2 10 -4 -4 -14 -3 -22 3 -10 9 -13 8
-13 -4 0 -9 -4 -19 -10 -22 -6 -3 -7 1 -4 9 8 20 0 20 -20 1 -18 -18 -46 -9
-45 14 0 9 3 11 5 4 6 -13 64 0 74 18 5 7 9 5 14 -6 3 -9 11 -13 17 -9 8 4 7
9 -2 16 -11 7 -9 8 6 6 11 -2 20 3 21 10 1 6 2 17 3 22 0 6 3 10 6 10 3 0 5
-6 4 -12z m1031 -25 c0 -25 -15 -12 -17 14 -1 19 1 22 8 12 5 -8 9 -20 9 -26z
m-760 -3 c-6 -10 -16 -22 -23 -26 -9 -6 -9 -5 0 8 7 8 10 18 6 21 -3 4 -1 7 6
7 7 0 9 5 5 12 -4 7 -3 8 4 4 9 -5 9 -13 2 -26z m295 12 c-3 -3 -11 0 -18 7
-9 10 -8 11 6 5 10 -3 15 -9 12 -12z m145 -13 c0 -11 -4 -18 -9 -14 -6 3 -9
14 -8 25 2 24 17 15 17 -11z m179 24 c14 11 14 10 2 -6 -10 -13 -17 -15 -27
-6 -8 6 -14 14 -14 17 0 3 5 1 12 -6 9 -9 15 -9 27 1z m398 1 c-3 -3 -12 -4
-19 -1 -8 3 -5 6 6 6 11 1 17 -2 13 -5z m-1603 -20 c5 -14 4 -15 -9 -4 -17 14
-19 20 -6 20 5 0 12 -7 15 -16z m636 6 c8 -5 11 -10 5 -10 -5 0 -17 5 -25 10
-8 5 -10 10 -5 10 6 0 17 -5 25 -10z m356 -5 c-3 -8 -1 -15 4 -15 6 0 10 -4
10 -10 0 -5 -6 -10 -14 -10 -8 0 -13 8 -11 18 2 9 4 20 4 25 1 4 4 7 7 7 3 0
4 -7 0 -15z m64 5 c0 -5 -2 -10 -4 -10 -3 0 -8 5 -11 10 -3 6 -1 10 4 10 6 0
11 -4 11 -10z m385 0 c3 -6 -1 -7 -9 -4 -18 7 -21 14 -7 14 6 0 13 -4 16 -10z
m115 0 c0 -5 -2 -10 -4 -10 -3 0 -8 5 -11 10 -3 6 -1 10 4 10 6 0 11 -4 11
-10z m126 -36 c-3 -8 -13 -14 -21 -14 -9 0 -13 5 -10 10 4 6 11 7 17 4 6 -4 8
-2 5 4 -4 5 -4 18 0 29 7 17 8 17 11 0 2 -10 1 -25 -2 -33z m151 24 c-3 -8 -6
-5 -6 6 -1 11 2 17 5 13 3 -3 4 -12 1 -19z m-1455 -20 c-8 -8 -9 -4 -5 13 4
13 8 18 11 10 2 -7 -1 -18 -6 -23z m483 14 c-3 -3 -11 0 -18 7 -9 10 -8 11 6
5 10 -3 15 -9 12 -12z m241 6 c4 -7 4 -10 -1 -6 -4 4 -15 2 -24 -5 -14 -11
-14 -10 -2 6 16 20 18 21 27 5z m494 8 c0 -2 -7 -9 -15 -16 -13 -11 -14 -10
-9 4 5 14 24 23 24 12z m26 -12 c-5 -12 -2 -15 9 -10 10 3 13 2 10 -5 -4 -5
-12 -8 -18 -6 -13 4 -18 37 -5 37 6 0 7 -7 4 -16z m105 -1 c13 -16 12 -17 -3
-4 -17 13 -22 21 -14 21 2 0 10 -8 17 -17z m-1618 -17 c8 5 8 3 0 -7 -17 -18
-16 -32 1 -26 10 4 13 1 10 -7 -3 -7 -11 -13 -19 -13 -8 0 -12 4 -9 8 2 4 -2
10 -8 12 -10 4 -10 8 1 15 9 7 10 12 2 16 -6 4 -11 13 -11 19 0 7 5 4 11 -6 6
-9 16 -14 22 -11z m358 11 c-5 -5 -7 -17 -4 -26 4 -14 3 -14 -10 1 -8 10 -18
14 -23 10 -4 -4 -3 0 4 9 6 9 19 16 27 16 10 0 12 -4 6 -10z m954 3 c3 -6 -1
-7 -9 -4 -18 7 -21 14 -7 14 6 0 13 -4 16 -10z m382 -12 c-3 -8 -6 -5 -6 6 -1
11 2 17 5 13 3 -3 4 -12 1 -19z m-1157 2 c0 -5 5 -10 11 -10 5 0 7 6 3 13 -4
7 -3 9 2 4 5 -5 10 -13 10 -18 1 -5 3 -10 4 -11 7 -8 6 -48 -2 -48 -5 0 -8 6
-7 13 3 25 -1 37 -15 37 -8 0 -16 -6 -19 -12 -2 -8 -8 -9 -13 -4 -5 5 -4 11 4
13 10 4 10 8 1 19 -9 11 -8 14 5 14 9 0 16 -4 16 -10z m80 -5 c16 -19 1 -19
-24 0 -16 12 -17 15 -4 15 8 0 21 -7 28 -15z m-314 -4 c-4 -5 -3 -11 1 -14 5
-2 2 -2 -4 -1 -7 2 -13 -5 -13 -16 0 -10 -4 -21 -9 -24 -5 -4 -7 4 -3 16 5 21
4 22 -12 8 -21 -17 -56 -24 -56 -11 0 9 28 22 59 27 7 2 18 7 24 13 13 13 20
14 13 2z m711 -18 c-14 -14 -19 -15 -29 -4 -11 10 -10 11 3 6 10 -4 20 -2 24
4 3 6 9 11 13 11 3 0 -1 -8 -11 -17z m51 -3 c-7 -11 -15 -15 -17 -9 -2 6 3 15
10 20 20 12 21 11 7 -11z m269 13 c-4 -3 -1 -13 6 -21 11 -13 9 -14 -10 -1
-16 9 -19 16 -10 21 15 9 23 10 14 1z m-550 -9 c-3 -3 -12 -4 -19 -1 -8 3 -5
6 6 6 11 1 17 -2 13 -5z m328 -11 c-2 -10 -4 -19 -4 -21 -1 -2 -6 0 -11 3 -8
5 -7 11 1 21 15 18 18 18 14 -3z m375 4 c0 -7 -7 -22 -16 -33 -15 -18 -15 -18
-5 3 15 30 14 32 -11 27 -21 -4 -22 -4 -3 5 28 13 35 13 35 -2z m35 3 c-3 -5
-12 -10 -18 -10 -7 0 -6 4 3 10 19 12 23 12 15 0z m217 -17 c-3 -16 -7 -22
-10 -15 -4 13 4 42 11 42 2 0 2 -12 -1 -27z m-1312 7 c0 -5 -5 -10 -11 -10 -5
0 -7 5 -4 10 3 6 8 10 11 10 2 0 4 -4 4 -10z m55 0 c3 -5 1 -18 -5 -27 -11
-17 -11 -16 -5 1 3 11 0 23 -7 28 -9 5 -10 8 -1 8 6 0 15 -4 18 -10z m140 0
c19 -8 19 -9 -2 -9 -12 -1 -25 4 -28 9 -7 12 2 12 30 0z m237 -12 c-5 -22 -4
-22 14 -7 26 22 64 31 57 13 -4 -11 -37 -28 -53 -26 -3 0 -13 -4 -22 -9 -11
-6 -19 -5 -24 3 -4 7 -3 8 4 4 8 -4 12 0 12 12 0 16 8 32 16 32 1 0 0 -10 -4
-22z m458 -1 c11 -5 9 -6 -4 -4 -11 1 -21 9 -23 17 -3 10 -2 11 4 4 4 -6 15
-14 23 -17z m287 4 c-1 -16 -4 -18 -17 -8 -25 19 -26 20 -7 14 9 -4 17 -2 17
3 0 6 2 10 4 10 3 0 4 -9 3 -19z m95 -23 c-6 -6 -7 0 -4 19 5 21 7 23 10 9 2
-10 0 -22 -6 -28z m-1312 28 c0 -2 -11 -6 -25 -8 -13 -3 -22 -1 -19 3 5 9 44
13 44 5z m408 -8 c-2 -6 -14 -12 -26 -13 -11 -1 -19 2 -16 7 4 5 12 7 20 4 8
-3 14 -1 14 4 0 6 3 10 6 10 3 0 4 -5 2 -12z m370 -13 c-3 -3 -9 2 -12 12 -6
14 -5 15 5 6 7 -7 10 -15 7 -18z m82 15 c0 -5 -2 -10 -4 -10 -3 0 -8 5 -11 10
-3 6 -1 10 4 10 6 0 11 -4 11 -10z m-1166 -9 c3 -5 -2 -15 -12 -22 -15 -12
-16 -12 -5 2 7 9 10 19 6 22 -3 4 -4 7 0 7 3 0 8 -4 11 -9z m460 -12 c-6 -11
-24 -2 -24 11 0 5 7 7 15 4 8 -4 12 -10 9 -15z m996 12 c0 -6 9 -8 20 -6 11 2
20 0 20 -4 0 -5 -11 -11 -25 -14 -14 -2 -23 -2 -20 1 2 3 0 11 -6 19 -9 9 -8
13 0 13 6 0 11 -4 11 -9z m-1220 -16 c-7 -9 -15 -13 -19 -10 -3 3 1 10 9 15
21 14 24 12 10 -5z m306 0 c-11 -8 -14 -15 -8 -15 7 0 12 -4 12 -10 0 -14 -18
-13 -34 2 -11 10 -9 15 8 24 30 17 45 16 22 -1z m344 5 c0 -5 -2 -10 -4 -10
-3 0 -8 5 -11 10 -3 6 -1 10 4 10 6 0 11 -4 11 -10z m178 -15 c-3 -3 -9 2 -12
12 -6 14 -5 15 5 6 7 -7 10 -15 7 -18z m165 -8 c-3 -5 -9 -3 -14 4 -8 12 -11
11 -19 -1 -11 -17 -13 -10 -4 14 5 12 9 13 24 4 10 -7 16 -16 13 -21z m37 23
c0 -5 -5 -10 -11 -10 -5 0 -7 5 -4 10 3 6 8 10 11 10 2 0 4 -4 4 -10z m-1153
-22 c0 -7 4 -21 8 -30 4 -11 3 -18 -5 -18 -6 0 -8 5 -5 10 3 6 2 10 -2 10 -5
0 -9 9 -10 20 -1 11 2 20 6 20 4 0 8 -6 8 -12z m354 4 c-11 -4 -11 -6 0 -14
10 -7 9 -8 -5 -4 -11 4 -23 1 -27 -6 -5 -8 -8 -6 -7 8 2 16 9 21 28 21 14 0
19 -2 11 -5z m244 -10 c-3 -3 -11 0 -18 7 -9 10 -8 11 6 5 10 -3 15 -9 12 -12z
m252 12 c-3 -3 -12 -4 -19 -1 -8 3 -5 6 6 6 11 1 17 -2 13 -5z m72 -1 c14 11
14 10 2 -6 -10 -13 -17 -15 -27 -6 -8 6 -14 14 -14 17 0 3 5 1 12 -6 9 -9 15
-9 27 1z m394 0 c-7 -2 -19 -2 -25 0 -7 3 -2 5 12 5 14 0 19 -2 13 -5z m-1599
-18 c3 -8 1 -15 -3 -15 -5 0 -11 7 -15 15 -3 8 -1 15 3 15 5 0 11 -7 15 -15z
m226 1 c-10 -13 -40 -12 -40 1 0 3 7 3 15 0 8 -4 17 -2 20 3 4 6 9 10 12 10 3
0 0 -6 -7 -14z m127 -1 c0 -8 -4 -12 -8 -9 -4 2 -10 0 -14 -6 -9 -15 -25 -12
-25 6 0 8 5 12 10 9 6 -3 10 -1 10 4 0 6 6 11 13 11 8 0 14 -7 14 -15z m1088
5 c3 -6 -1 -7 -9 -4 -18 7 -21 14 -7 14 6 0 13 -4 16 -10z m115 0 c0 -5 -2
-10 -4 -10 -3 0 -8 5 -11 10 -3 6 -1 10 4 10 6 0 11 -4 11 -10z m122 1 c6 10
8 5 6 -15 -4 -41 -25 -44 -25 -4 0 18 2 27 5 19 4 -11 6 -11 14 0z m71 -11
c-20 -23 -20 -23 -29 -8 -4 7 -3 8 4 4 7 -4 12 -1 12 8 0 9 7 16 15 16 12 0
12 -3 -2 -20z m84 -2 c-3 -8 -6 -5 -6 6 -1 11 2 17 5 13 3 -3 4 -12 1 -19z
m-1254 -13 c-6 -17 -23 -20 -23 -5 0 6 5 10 11 10 5 0 7 5 3 12 -4 7 -3 8 4 4
6 -4 9 -13 5 -21z m447 9 c0 -8 -4 -12 -10 -9 -5 3 -10 1 -10 -4 0 -6 -6 -11
-13 -11 -8 0 -14 7 -14 15 0 8 4 12 8 9 4 -2 10 0 14 6 9 15 25 12 25 -6z
m570 12 c0 -2 -7 -9 -15 -16 -13 -11 -14 -10 -9 4 5 14 24 23 24 12z m30 -6
c0 -5 -2 -10 -4 -10 -3 0 -8 5 -11 10 -3 6 -1 10 4 10 6 0 11 -4 11 -10z
m-1653 -22 c-3 -8 -6 -5 -6 6 -1 11 2 17 5 13 3 -3 4 -12 1 -19z m1730 0 c-3
-8 -6 -5 -6 6 -1 11 2 17 5 13 3 -3 4 -12 1 -19z m-1051 -3 c14 -13 14 -15 1
-15 -9 0 -17 -6 -20 -12 -2 -8 -8 -9 -13 -4 -5 5 -4 11 4 13 10 4 10 8 1 19
-16 20 7 19 27 -1z m73 1 c9 -11 6 -13 -16 -13 -16 0 -22 2 -14 5 11 4 11 6 0
13 -11 7 -11 9 2 9 9 0 22 -6 28 -14z m45 5 c3 -5 -1 -11 -9 -14 -9 -4 -12 -1
-8 9 6 16 10 17 17 5z m-760 -50 c2 -19 1 -30 -4 -25 -5 5 -11 24 -14 43 -2
19 -1 30 4 25 5 -5 11 -24 14 -43z m1633 32 c5 -14 -25 -25 -32 -12 -4 5 -3 9
2 8 20 -4 27 2 13 12 -12 9 -12 10 -1 7 8 -3 16 -9 18 -15z m-1682 -26 c1 -15
-3 -27 -7 -27 -4 0 -7 -5 -5 -11 1 -6 -5 -14 -13 -16 -13 -4 -13 -3 0 6 13 10
13 11 0 11 -9 0 -11 3 -4 8 18 12 23 39 11 52 -9 10 -9 11 3 8 8 -3 15 -17 15
-31z m149 17 c3 -8 2 -12 -4 -9 -6 3 -10 10 -10 16 0 14 7 11 14 -7z m302 4
c4 -7 3 -8 -4 -4 -8 5 -12 0 -12 -13 0 -11 -4 -22 -9 -25 -5 -4 -7 4 -3 16 5
21 4 22 -12 8 -21 -17 -56 -24 -56 -11 0 9 28 22 58 27 8 1 16 5 20 8 8 8 10
8 18 -6z m714 -3 c-7 -8 -17 -15 -23 -15 -6 0 -2 7 9 15 25 19 30 19 14 0z
m48 -5 c-7 -10 -14 -17 -17 -15 -4 4 18 35 25 35 2 0 -1 -9 -8 -20z m562 10
c0 -5 -2 -10 -4 -10 -3 0 -8 5 -11 10 -3 6 -1 10 4 10 6 0 11 -4 11 -10z
m-515 -17 c-2 -10 -4 -19 -4 -21 -1 -2 -6 0 -11 3 -8 5 -7 11 1 21 15 18 18
18 14 -3z m161 2 c-4 -24 -16 -30 -16 -7 0 12 4 22 9 22 5 0 8 -7 7 -15z m42
8 c-10 -2 -18 -8 -18 -13 0 -5 8 -11 18 -13 15 -4 15 -5 0 -6 -19 -1 -32 14
-23 29 3 6 14 9 23 9 15 -1 15 -2 0 -6z m172 -6 c0 -7 -7 -22 -16 -33 -15 -18
-15 -18 -5 3 15 30 14 32 -11 27 -21 -4 -22 -4 -3 5 28 13 35 13 35 -2z m177
-9 c-3 -8 -6 -5 -6 6 -1 11 2 17 5 13 3 -3 4 -12 1 -19z m75 -5 c-3 -16 -7
-22 -10 -15 -4 13 4 42 11 42 2 0 2 -12 -1 -27z m-1758 1 c3 -8 2 -12 -4 -9
-6 3 -10 10 -10 16 0 14 7 11 14 -7z m61 -1 c-2 -10 -4 -19 -4 -21 -1 -2 -6 0
-11 3 -8 5 -7 11 1 21 15 18 18 18 14 -3z m149 1 c8 -22 8 -24 -6 -24 -6 0 -8
3 -5 7 4 3 2 12 -4 20 -7 8 -8 13 -1 13 5 0 13 -7 16 -16z m186 -1 c0 -3 -7
-3 -15 1 -8 3 -15 0 -15 -6 0 -6 -3 -9 -6 -5 -11 10 6 26 21 20 8 -3 15 -7 15
-10z m105 6 c11 -16 1 -19 -13 -3 -7 8 -8 14 -3 14 5 0 13 -5 16 -11z m92 -9
c-1 -11 -5 -20 -9 -20 -3 0 -6 9 -5 20 1 11 5 20 9 20 3 0 6 -9 5 -20z m43 10
c0 -5 -7 -7 -15 -4 -8 4 -15 8 -15 10 0 2 7 4 15 4 8 0 15 -4 15 -10z m242
-12 c-5 -21 -4 -22 12 -8 21 17 56 24 56 11 0 -8 -36 -25 -50 -23 -3 0 -13 -4
-22 -9 -11 -6 -19 -5 -24 3 -4 7 -3 8 4 4 8 -4 12 0 12 12 0 16 8 32 16 32 1
0 0 -10 -4 -22z m98 18 c0 -3 -4 -8 -10 -11 -5 -3 -10 -1 -10 4 0 6 5 11 10
11 6 0 10 -2 10 -4z m647 -15 c0 -11 -4 -18 -8 -15 -4 2 -10 0 -14 -6 -3 -5
-11 -10 -17 -10 -7 0 -7 4 1 13 6 8 8 17 4 21 -4 4 0 4 10 0 10 -3 17 -1 17 5
0 6 2 11 4 11 3 0 4 -9 3 -19z m95 -23 c-6 -6 -7 0 -4 19 5 21 7 23 10 9 2
-10 0 -22 -6 -28z m-1824 2 c-1 -16 -6 -30 -11 -30 -4 0 -6 -4 -2 -9 3 -5 1
-12 -4 -16 -9 -5 -8 11 4 65 5 21 4 20 10 20 3 0 4 -13 3 -30z m916 10 c-6 -6
-15 -5 -24 1 -13 9 -12 10 3 5 9 -3 17 0 17 6 0 6 3 8 7 5 4 -4 2 -12 -3 -17z
m374 -5 c-3 -3 -9 2 -12 12 -6 14 -5 15 5 6 7 -7 10 -15 7 -18z m83 13 c0 -7
2 -21 4 -30 2 -10 0 -18 -5 -18 -4 0 -10 14 -12 30 -3 17 -1 30 4 30 4 0 8 -6
9 -12z m-1161 -6 c0 -12 -22 -32 -35 -32 -5 0 -2 5 8 11 9 6 15 14 12 20 -4 5
-1 9 4 9 6 0 11 -4 11 -8z m454 -13 c-6 -11 -24 -2 -24 11 0 5 7 7 15 4 8 -4
12 -10 9 -15z m1000 5 c8 -22 8 -24 -6 -24 -6 0 -8 3 -5 7 4 3 2 12 -4 20 -7
8 -8 13 -1 13 5 0 13 -7 16 -16z m-916 -8 c-13 -10 -15 -15 -6 -24 9 -9 9 -12
-1 -12 -7 0 -19 7 -27 15 -14 13 -14 15 0 15 9 0 16 5 16 10 0 6 8 10 18 10
16 -1 16 -1 0 -14z m342 4 c0 -5 -2 -10 -4 -10 -3 0 -8 5 -11 10 -3 6 -1 10 4
10 6 0 11 -4 11 -10z m178 -15 c-3 -3 -9 2 -12 12 -6 14 -5 15 5 6 7 -7 10
-15 7 -18z m153 8 c12 -15 12 -16 -3 -10 -14 5 -18 1 -18 -15 0 -12 -3 -19 -6
-15 -6 6 3 57 10 57 2 0 10 -8 17 -17z m49 7 c0 -5 -5 -10 -11 -10 -5 0 -7 5
-4 10 3 6 8 10 11 10 2 0 4 -4 4 -10z m327 -22 c-3 -7 -5 -2 -5 12 0 14 2 19
5 13 2 -7 2 -19 0 -25z m-1126 4 c-11 -4 -11 -6 0 -14 10 -7 9 -8 -5 -4 -11 4
-23 1 -27 -6 -5 -8 -8 -6 -7 8 2 16 9 21 28 21 14 0 19 -2 11 -5z m244 -2 c3
-6 -1 -7 -9 -4 -18 7 -21 14 -7 14 6 0 13 -4 16 -10z m335 6 c0 -2 -6 -9 -14
-15 -11 -9 -16 -9 -22 0 -4 7 -3 9 4 5 6 -3 13 -2 17 4 6 10 15 14 15 6z
m-1216 -21 c3 -8 1 -15 -3 -15 -5 0 -11 7 -15 15 -3 8 -1 15 3 15 5 0 11 -7
15 -15z m353 0 c0 -8 -4 -12 -8 -9 -4 2 -10 0 -14 -6 -9 -15 -25 -12 -25 6 0
8 5 12 10 9 6 -3 10 -1 10 4 0 6 6 11 13 11 8 0 14 -7 14 -15z m217 7 c3 -5
-1 -9 -9 -9 -8 0 -12 4 -9 9 3 4 7 8 9 8 2 0 6 -4 9 -8z m196 -7 c-11 -14 -7
-19 13 -16 13 2 7 -8 -11 -18 -16 -8 -18 -6 -16 12 1 12 3 25 3 30 1 4 6 7 12
7 8 0 8 -5 -1 -15z m285 5 c-3 -5 -1 -10 5 -10 6 0 8 -5 4 -11 -4 -8 -9 -7
-15 2 -12 19 -11 29 2 29 5 0 7 -4 4 -10z m390 0 c3 -6 -1 -7 -9 -4 -18 7 -21
14 -7 14 6 0 13 -4 16 -10z m115 0 c0 -5 -2 -10 -4 -10 -3 0 -8 5 -11 10 -3 6
-1 10 4 10 6 0 11 -4 11 -10z m126 -10 c12 0 12 -4 4 -20 -6 -11 -18 -20 -26
-20 -8 0 -13 -4 -10 -8 7 -11 -31 -8 -41 3 -5 4 -3 5 3 2 19 -11 55 23 49 46
-2 12 -2 16 1 10 3 -7 12 -13 20 -13z m50 -18 c-15 -15 -15 -15 -4 10 7 15 15
23 17 17 2 -6 -4 -18 -13 -27z m74 34 c0 -2 -7 -7 -16 -10 -8 -3 -12 -2 -9 4
6 10 25 14 25 6z m-1520 -16 c0 -5 -5 -10 -11 -10 -5 0 -7 5 -4 10 3 6 8 10
11 10 2 0 4 -4 4 -10z m740 -6 c0 -8 -4 -12 -10 -9 -5 3 -10 1 -10 -4 0 -6 -6
-11 -13 -11 -8 0 -14 7 -14 15 0 8 4 12 8 9 4 -2 10 0 14 6 9 15 25 12 25 -6z
m365 -5 c-3 -15 0 -19 11 -15 9 3 12 1 9 -4 -3 -6 0 -10 7 -10 10 0 10 -2 -1
-9 -7 -5 -11 -13 -7 -19 3 -5 0 -12 -7 -15 -8 -3 -14 3 -14 14 -1 10 4 19 10
19 7 1 1 7 -13 15 -14 8 -19 14 -12 15 6 0 11 3 11 8 -2 11 1 22 5 22 3 0 3
-9 1 -21z m186 -2 c-10 -9 -11 -8 -5 6 3 10 9 15 12 12 3 -3 0 -11 -7 -18z
m56 4 c1 -13 -4 -19 -16 -18 -15 1 -17 4 -7 19 14 23 21 23 23 -1z m-900 -10
c-1 -13 -9 -18 -27 -18 -14 0 -19 2 -11 5 11 4 11 6 0 14 -10 6 -7 7 9 3 13
-4 22 -2 22 4 0 6 2 11 4 11 3 0 4 -8 3 -19z m617 4 c3 -8 1 -15 -3 -15 -5 0
-11 7 -15 15 -3 8 -1 15 3 15 5 0 11 -7 15 -15z m-807 -1 c-3 -3 -12 -4 -19
-1 -8 3 -5 6 6 6 11 1 17 -2 13 -5z m33 2 c0 -3 -4 -8 -10 -11 -5 -3 -10 -1
-10 4 0 6 5 11 10 11 6 0 10 -2 10 -4z m76 -11 c14 -13 14 -15 1 -15 -9 0 -17
-6 -20 -12 -2 -8 -8 -9 -13 -4 -5 5 -4 11 4 13 10 4 10 8 1 19 -16 20 7 19 27
-1z m-685 -23 c-15 -28 -14 -37 4 -22 12 10 14 7 12 -19 -2 -27 -18 -41 -19
-16 0 6 -4 15 -9 21 -5 6 -7 18 -3 27 3 8 0 17 -8 20 -7 2 -5 3 5 2 9 -2 17 2
17 8 0 6 3 8 6 5 3 -4 1 -15 -5 -26z m1872 21 c-7 -2 -21 -2 -30 0 -10 3 -4 5
12 5 17 0 24 -2 18 -5z m-1729 -19 c3 -8 2 -12 -4 -9 -6 3 -10 10 -10 16 0 14
7 11 14 -7z m113 10 c-3 -3 -12 -4 -19 -1 -8 3 -5 6 6 6 11 1 17 -2 13 -5z
m189 -6 c4 -7 3 -8 -4 -4 -8 5 -12 0 -12 -13 0 -11 -4 -22 -9 -25 -5 -4 -7 4
-3 16 5 21 4 22 -12 8 -10 -8 -23 -15 -30 -17 -39 -8 -50 -10 -38 -6 6 3 12 8
12 13 0 8 29 21 58 26 8 1 16 5 20 8 8 8 10 8 18 -6z m714 -3 c-7 -8 -17 -15
-23 -15 -6 0 -2 7 9 15 25 19 30 19 14 0z m48 -5 c-7 -10 -14 -17 -17 -15 -4
4 18 35 25 35 2 0 -1 -9 -8 -20z m-1022 -15 c1 -8 -4 -19 -11 -25 -10 -9 -13
-7 -10 7 2 10 4 20 5 23 1 3 1 10 0 15 -1 6 2 6 6 2 4 -4 9 -14 10 -22z m139
15 c3 -5 1 -10 -4 -10 -6 0 -11 5 -11 10 0 6 2 10 4 10 3 0 8 -4 11 -10z m435
-10 c0 -5 -7 -7 -15 -4 -8 4 -12 10 -9 15 6 11 24 2 24 -11z m860 10 c-8 -5
-19 -10 -25 -10 -5 0 -3 5 5 10 8 5 20 10 25 10 6 0 3 -5 -5 -10z m263 -10
c-3 -12 -8 -19 -11 -16 -5 6 5 36 12 36 2 0 2 -9 -1 -20z m-1759 -6 c3 -8 2
-12 -4 -9 -6 3 -10 10 -10 16 0 14 7 11 14 -7z m399 3 c-3 -5 -11 -6 -19 -3
-8 3 -14 0 -14 -6 0 -6 -3 -9 -6 -5 -10 10 3 23 25 23 11 0 17 -4 14 -9z m194
-7 c-1 -11 -5 -20 -9 -20 -3 0 -6 9 -5 20 1 11 5 20 9 20 3 0 6 -9 5 -20z
m285 -2 c-5 -21 -4 -22 12 -8 21 17 56 24 56 11 0 -8 -36 -25 -50 -23 -3 0
-12 -3 -20 -8 -8 -4 -24 -3 -35 1 -18 9 -18 9 3 5 16 -3 22 1 22 13 0 15 8 31
16 31 1 0 0 -10 -4 -22z m95 15 c-4 -3 -2 -12 4 -20 9 -9 8 -13 0 -13 -6 0
-11 2 -11 4 0 2 -3 11 -6 20 -4 10 -1 16 7 16 7 0 9 -3 6 -7z m-282 -32 c-6
-5 -25 10 -25 20 0 5 6 4 14 -3 8 -7 12 -15 11 -17z m434 7 c-5 -10 -11 -18
-12 -18 -2 0 -3 8 -3 18 0 10 6 19 13 19 8 0 9 -6 2 -19z m59 -3 c-3 -3 -9 2
-12 12 -6 14 -5 15 5 6 7 -7 10 -15 7 -18z m232 15 c0 -5 -5 -10 -11 -10 -5 0
-7 5 -4 10 3 6 8 10 11 10 2 0 4 -4 4 -10z m80 -10 c-6 -11 -13 -20 -16 -20
-2 0 0 9 6 20 6 11 13 20 16 20 2 0 0 -9 -6 -20z m147 6 c0 -8 -5 -14 -11 -13
-6 1 -10 -4 -8 -11 1 -8 -2 -11 -8 -7 -6 3 -8 11 -5 16 9 14 -5 11 -21 -6 -22
-22 -40 -18 -41 8 -2 20 -1 21 11 4 12 -15 15 -16 26 -2 7 9 19 14 26 11 7 -3
16 -1 19 4 8 14 12 12 12 -4z m-1551 -24 c-17 -16 -18 -16 -5 5 7 12 15 20 18
17 3 -2 -3 -12 -13 -22z m469 19 c10 -17 -9 -20 -30 -5 -18 14 -18 14 2 14 12
0 24 -4 28 -9z m232 3 c-3 -3 -12 -4 -19 -1 -8 3 -5 6 6 6 11 1 17 -2 13 -5z
m924 -17 c-10 -9 -11 -8 -5 6 3 10 9 15 12 12 3 -3 0 -11 -7 -18z m-1552 10
c-2 -1 -13 -9 -24 -17 -19 -14 -19 -14 -6 3 7 9 18 17 24 17 6 0 8 -1 6 -3z
m481 -7 c0 -5 -5 -10 -11 -10 -8 0 -8 -5 1 -15 17 -21 -6 -21 -26 0 -14 13
-14 15 0 15 9 0 16 5 16 10 0 6 5 10 10 10 6 0 10 -4 10 -10z m383 -5 c-3 -9
-8 -14 -10 -11 -3 3 -2 9 2 15 9 16 15 13 8 -4z m137 0 c7 -9 8 -15 2 -15 -5
0 -12 7 -16 15 -3 8 -4 15 -2 15 2 0 9 -7 16 -15z m-1313 -1 c-3 -3 -12 -4
-19 -1 -8 3 -5 6 6 6 11 1 17 -2 13 -5z m540 0 c-3 -3 -12 -4 -19 -1 -8 3 -5
6 6 6 11 1 17 -2 13 -5z m174 -12 c-11 -4 -11 -6 0 -13 11 -7 11 -9 -2 -9 -9
0 -22 6 -28 14 -9 11 -6 13 16 13 16 0 22 -2 14 -5z m389 -18 c0 -8 -4 -14 -9
-14 -6 0 -9 9 -8 19 1 22 17 18 17 -5z m107 20 c-3 -3 -12 -4 -19 -1 -8 3 -5
6 6 6 11 1 17 -2 13 -5z m83 2 c0 -2 -6 -9 -14 -15 -11 -9 -16 -9 -22 0 -4 7
-3 9 4 5 6 -3 13 -2 17 4 6 10 15 14 15 6z m155 -6 c3 -5 1 -10 -4 -10 -6 0
-11 5 -11 10 0 6 2 10 4 10 3 0 8 -4 11 -10z m-1018 -15 c0 -8 -3 -13 -5 -10
-9 9 -32 -17 -25 -28 3 -6 1 -7 -5 -3 -7 4 -12 16 -12 27 0 11 5 17 10 14 6
-3 10 -1 10 4 0 6 6 11 13 11 8 0 14 -7 14 -15z m219 -10 c1 -8 -2 -17 -7 -21
-5 -3 -8 6 -7 20 2 26 10 26 14 1z m196 13 c-9 -9 -9 -15 1 -27 11 -14 10 -14
-6 -2 -13 10 -15 17 -6 27 6 8 14 14 17 14 3 0 1 -5 -6 -12z m289 5 c0 -5 2
-18 5 -30 2 -13 0 -23 -4 -23 -5 0 -9 6 -9 13 0 6 -4 20 -8 30 -4 10 -3 17 4
17 6 0 11 -3 12 -7z m386 -15 c-3 -8 -6 -5 -6 6 -1 11 2 17 5 13 3 -3 4 -12 1
-19z m113 12 c0 -5 -2 -10 -4 -10 -3 0 -8 5 -11 10 -3 6 -1 10 4 10 6 0 11 -4
11 -10z m277 -12 c-3 -8 -6 -5 -6 6 -1 11 2 17 5 13 3 -3 4 -12 1 -19z m-1547
-1 c0 -5 -6 -7 -14 -4 -7 3 -20 0 -27 -6 -11 -10 -11 -9 -1 4 13 17 42 21 42
6z m1350 9 c0 -3 -4 -8 -10 -11 -5 -3 -10 -1 -10 4 0 6 5 11 10 11 6 0 10 -2
10 -4z m46 -33 c-5 -12 -10 -13 -17 -6 -8 8 -7 16 2 26 16 17 24 5 15 -20z
m-1191 17 c3 -6 -1 -7 -9 -4 -18 7 -21 14 -7 14 6 0 13 -4 16 -10z m243 -16
c0 -14 -3 -22 -7 -17 -3 5 -15 15 -26 22 -19 11 -19 12 3 6 13 -4 22 -2 22 4
0 6 2 11 4 11 2 0 4 -12 4 -26z m232 17 c0 -5 -7 -12 -16 -15 -14 -5 -15 -4
-4 9 14 17 20 19 20 6z m737 -13 c-3 -8 -6 -5 -6 6 -1 11 2 17 5 13 3 -3 4
-12 1 -19z m-1546 -5 c11 -15 11 -16 -1 -6 -11 10 -17 10 -29 0 -14 -11 -14
-10 -2 6 7 9 15 17 16 17 1 0 9 -8 16 -17z m386 11 c-3 -3 -12 -4 -19 -1 -8 3
-5 6 6 6 11 1 17 -2 13 -5z m109 -9 c13 -13 13 -15 1 -15 -8 0 -20 7 -27 15
-9 11 -10 15 -1 15 7 0 19 -7 27 -15z m354 6 c0 -5 -7 -11 -14 -14 -10 -4 -13
-1 -9 9 6 15 23 19 23 5z m104 -6 c-4 -8 -8 -15 -10 -15 -2 0 -4 7 -4 15 0 8
4 15 10 15 5 0 7 -7 4 -15z m81 -5 c-10 -11 -22 -20 -28 -20 -5 0 1 9 14 20
31 25 37 25 14 0z m450 -1 c11 -16 1 -19 -13 -3 -7 8 -8 14 -3 14 5 0 13 -5
16 -11z m-1531 -15 c3 -8 2 -12 -4 -9 -6 3 -10 10 -10 16 0 14 7 11 14 -7z
m814 -9 c-3 -3 -9 2 -12 12 -6 14 -5 15 5 6 7 -7 10 -15 7 -18z m206 4 c-31
-12 -39 -10 -19 5 11 8 24 12 29 8 5 -3 1 -9 -10 -13z m-839 1 c3 -5 1 -10 -4
-10 -6 0 -11 5 -11 10 0 6 2 10 4 10 3 0 8 -4 11 -10z m340 0 c3 -5 2 -10 -4
-10 -5 0 -13 5 -16 10 -3 6 -2 10 4 10 5 0 13 -4 16 -10z m991 -3 c11 -11 -19
-8 -36 3 -12 8 -10 9 7 7 12 -2 26 -6 29 -10z"/>
<path d="M1890 1500 c0 -5 5 -10 11 -10 5 0 7 5 4 10 -3 6 -8 10 -11 10 -2 0
-4 -4 -4 -10z"/>
<path d="M1905 1370 c3 -5 11 -10 16 -10 6 0 7 5 4 10 -3 6 -11 10 -16 10 -6
0 -7 -4 -4 -10z"/>
<path d="M0 871 c0 -6 4 -12 8 -15 5 -3 9 1 9 9 0 8 -4 15 -9 15 -4 0 -8 -4
-8 -9z"/>
<path d="M475 10 c-2 -3 5 -7 16 -7 10 -1 19 2 19 6 0 9 -29 10 -35 1z"/>
</g>
</svg>
